<svg xmlns="http://www.w3.org/2000/svg" viewBox="0 0 800 600"><defs><style>.cls-1{isolation:isolate;}.cls-2,.cls-39{fill:#fff6e9;}.cls-26,.cls-3{fill:#eda5a6;}.cls-3,.cls-4{opacity:0.19;}.cls-26,.cls-3,.cls-4{mix-blend-mode:multiply;}.cls-5{fill:#f57fb1;}.cls-6{fill:#b85880;}.cls-7{fill:#f5b0cd;}.cls-8{fill:#eda491;}.cls-9{fill:#edb9ab;}.cls-10{fill:#ed8374;}.cls-11{fill:#ed9689;}.cls-12{fill:#fff;}.cls-13{fill:#6e6262;}.cls-14,.cls-34,.cls-45{fill:#ffe486;}.cls-14,.cls-16,.cls-23,.cls-24,.cls-25,.cls-28,.cls-32,.cls-35,.cls-36,.cls-37,.cls-39,.cls-40,.cls-41,.cls-42,.cls-43,.cls-44,.cls-45,.cls-46{stroke:#7d1416;}.cls-14,.cls-16,.cls-23,.cls-24,.cls-25,.cls-28,.cls-32,.cls-35,.cls-36,.cls-37,.cls-39,.cls-40,.cls-41,.cls-42,.cls-43,.cls-45{stroke-linecap:round;}.cls-14,.cls-16,.cls-28,.cls-35,.cls-36,.cls-37,.cls-39,.cls-40,.cls-42,.cls-45,.cls-46{stroke-linejoin:round;}.cls-14{stroke-width:0.88px;}.cls-15{fill:#ffefbb;}.cls-16,.cls-25,.cls-28,.cls-41{fill:none;}.cls-16{stroke-width:1.76px;}.cls-17{fill:#7d1416;}.cls-18,.cls-37{fill:#5fc48a;}.cls-19{fill:#45ad71;}.cls-20{fill:#d4884f;}.cls-21{fill:#d9a262;}.cls-22{fill:#cc7434;}.cls-23{fill:#afe3e3;}.cls-23,.cls-24,.cls-25,.cls-32,.cls-41,.cls-43,.cls-44{stroke-miterlimit:10;}.cls-23,.cls-24,.cls-25,.cls-32{stroke-width:2.11px;}.cls-24{fill:#93c7c7;}.cls-27{fill:#4b4343;}.cls-28{stroke-width:1.51px;}.cls-29{fill:#d46a50;}.cls-30{fill:#d9985b;}.cls-31{fill:#c95342;}.cls-32,.cls-44{fill:#f3bdbd;}.cls-33{fill:#877878;}.cls-35,.cls-38{fill:#d7ffc2;}.cls-35,.cls-42,.cls-43,.cls-44,.cls-45,.cls-46{stroke-width:1.76px;}.cls-36{fill:#96cc7d;}.cls-36,.cls-37,.cls-39,.cls-40,.cls-41{stroke-width:0.95px;}.cls-40,.cls-43{fill:#ec839f;}.cls-42{fill:#b0deda;}.cls-46{fill:#51c0b4;}</style></defs><g class="cls-1"><g id="Layer_1" data-name="Layer 1"><rect class="cls-2" width="800" height="600"/><path class="cls-3" d="M557.72,552.12s-21-50.26-23-55.57c-2.79-7.62-8-7-8-7l-110.67-8.81-4.94-.4-110.68-8.81s-4.35-1.43-9,5.64C288.36,481.9,260,528.41,260,528.41s-1.23,10.24,9.8,12c9.77,1.51,114.34,9.27,138.19,11,23.82,2,128.3,10.92,138.18,11C557.32,562.43,557.72,552.12,557.72,552.12Z"/><g class="cls-4"><path class="cls-5" d="M609.61,210.89a13.85,13.85,0,0,1-1.49.63,18.78,18.78,0,0,1-10,.19c-5.35-1.22-10.28-4.43-10.52-9.57-.27-5.75,4.53-10.33,7-15.56a14.57,14.57,0,0,0,1.27-4l.06-.46.2.2.19.18c2.33,2.13,5.42,3.24,8.45,4.2,3.19,1,6.5,2,9.16,4C622,196.9,617.56,207.08,609.61,210.89Z"/><path class="cls-6" d="M612.6,207.9a12.09,12.09,0,0,1-1.49.63,18.77,18.77,0,0,1-10,.2c-5.35-1.22-10.28-4.43-10.52-9.58-.27-5.75,4.53-10.32,7-15.55l0-.08a12.67,12.67,0,0,1-1.3-1l-.19-.18-.2-.2-.06.46a14.57,14.57,0,0,1-1.27,4c-2.45,5.23-7.25,9.81-7,15.56.24,5.14,5.17,8.35,10.52,9.57a18.78,18.78,0,0,0,10-.19,13.85,13.85,0,0,0,1.49-.63,16.2,16.2,0,0,0,5.88-4.77A15.8,15.8,0,0,1,612.6,207.9Z"/><path class="cls-7" d="M613.92,190.69c-2.84-2.19-6.33-3-9.65-4.15-2.73-.93-4.8-3-7.61-3.62,4.3,3.72,9.2,6.76,13.71,10.23,6.61,5.08,4.84,12.8-.36,17.54C617.71,206.73,621.86,196.8,613.92,190.69Z"/><path class="cls-6" d="M609.61,210.89a13.85,13.85,0,0,1-1.49.63,18.78,18.78,0,0,1-10,.19c-2.73-3-3.71-7.81-4.1-11.68a58.3,58.3,0,0,1,.56-13.45c.13-1.06.28-2.11.43-3.16l.84-.84.26-.26.26-.26c0,.15,0,.29-.07.44a25.82,25.82,0,0,0,10.07,24.19c1.22.89,2.62,1.8,3,3.25A6.22,6.22,0,0,1,609.61,210.89Z"/></g><g class="cls-4"><path class="cls-5" d="M499.9,136.64a6.31,6.31,0,0,1-.76-.08,8.93,8.93,0,0,1-4.2-2.22c-1.94-1.74-3.24-4.21-2.16-6.4,1.21-2.45,4.26-3.25,6.49-4.86a7,7,0,0,0,1.45-1.37l.13-.17,0,.13,0,.11a10.61,10.61,0,0,0,2.54,3.7,13.73,13.73,0,0,1,2.89,3.77C508.27,133.69,504.08,136.89,499.9,136.64Z"/><path class="cls-6" d="M503,136a6.31,6.31,0,0,1-.76-.08,8.9,8.9,0,0,1-4.19-2.22c-1.95-1.74-3.25-4.21-2.17-6.4s3.57-3,5.67-4.32a6.69,6.69,0,0,1-.58-1.24l0-.11,0-.13-.13.17a7,7,0,0,1-1.45,1.37c-2.23,1.61-5.28,2.41-6.49,4.86-1.08,2.19.22,4.66,2.16,6.4a8.93,8.93,0,0,0,4.2,2.22,6.31,6.31,0,0,0,.76.08,7.9,7.9,0,0,0,3.46-.58Z"/><path class="cls-7" d="M506.35,129.25a15.24,15.24,0,0,0-3.06-4c-.91-1-1.3-2.35-2.32-3.26.93,2.54,2.26,4.93,3.34,7.41,1.57,3.63-.94,6.43-4.2,7.2C504.22,136.78,508.24,133.61,506.35,129.25Z"/><path class="cls-6" d="M499.9,136.64a6.31,6.31,0,0,1-.76-.08,8.93,8.93,0,0,1-4.2-2.22c-.45-1.86.26-4.1,1-5.8a27.84,27.84,0,0,1,3.34-5.46c.29-.41.6-.81.9-1.21l.55-.16.16,0,.17,0a1.83,1.83,0,0,0-.13.16,12.26,12.26,0,0,0-1.39,12.37,3.35,3.35,0,0,1,.51,2A3.27,3.27,0,0,1,499.9,136.64Z"/></g><g class="cls-4"><path class="cls-8" d="M500.07,173.57c.51,1.12,1,2.24,1.44,3.39-52.82-41.73-116.94,6.17-158.72,49.41-7.71,8-14.67,15.79-20.65,22.87-9.73,11.49-27.31,19.13-41.9,22.57-6.65,1.58-14.44,2.25-19.58-2.24-4.36-3.79-5.39-10.06-5.83-15.81a155.78,155.78,0,0,1,6.76-58.08c3.18-9.81,9.82-13.52,16.36-20.53a174.23,174.23,0,0,1,22.5-20.43,162.58,162.58,0,0,1,55.33-27C403.62,115,476.87,122.53,500.07,173.57Z"/><path class="cls-9" d="M355.78,127.74a162.58,162.58,0,0,0-55.33,27A174.23,174.23,0,0,0,278,175.15c-6.54,7-13.18,10.72-16.36,20.53a155.78,155.78,0,0,0-6.76,58.08c0,.46.08.91.13,1.37a155.22,155.22,0,0,1,7-53.4c3.17-9.81,9.81-13.52,16.36-20.53a174.29,174.29,0,0,1,22.5-20.43,162.53,162.53,0,0,1,55.32-27c46-12.28,115.57-5.73,141.43,40.25,1.32.93,2.64,1.89,3.95,2.92-.46-1.15-.93-2.27-1.44-3.39C476.87,122.53,403.62,115,355.78,127.74Z"/><path class="cls-10" d="M342.67,214.46c-2.66,3.87-5.11,7.73-9.9,9.52-3.55,1.33-7.36,1.75-11.1,2.33a121.63,121.63,0,0,0-28.79,8.21c2.2-.93,6.73-.24,9.25-.62,3.47-.54,6.88-1.44,10.3-2.21,3.63-.81,11.75-3.62,12.94,2.33.49,2.47-.74,4.94-2,7.13-4.22,7.37-9.3,14.49-16.33,19.25l13.59-9.81c4.74-3.42,9.56-6.88,13.59-11.15,3.88-4.08,5.28-9.14,8.67-13.34,9.42-11.64,22.65-21.95,34.38-31.16,12.46-9.76,25.84-18.59,40.36-25,28.09-12.35,59-12.66,83.88,7-.46-1.15-.93-2.27-1.44-3.39a72.85,72.85,0,0,0-10.14-16.18c-3.6-4.38-15.12-6.47-20.42-7.51a73.38,73.38,0,0,0-21.74-.86c-15.27,1.58-29.86,7.38-43.21,14.77-14.39,8-27.62,18-40,28.76q-9.15,8-17.72,16.63A36.17,36.17,0,0,0,342.67,214.46Z"/><path class="cls-11" d="M465.79,153.5c7.4,4.19,14.47,9.17,21.34,13.85C451.77,143.26,410,161,376.74,179.58a134.59,134.59,0,0,0-21.65,14.82,123.79,123.79,0,0,0-9.53,9.22c-1.51,1.58-3.87,6.49-5.14,7.34a182.68,182.68,0,0,1,27.93-15.27c-5.11,7.17-15,9.05-21.61,14.83-3.14,2.72-5.48,6.25-8.55,9.06-4,3.67-10.34,4.94-15.6,5.57a185.58,185.58,0,0,0-27.89,5.58c-1-10.86,11.59-19.08,11.58-30,0-9.05-3.66-15.23,4.39-21.84,7.17-5.89,18.4-7.34,26.24-12.64,15.92-10.75,33-18.72,52-22.25a142.54,142.54,0,0,1,54.15.46C451,146.05,458.57,149.4,465.79,153.5Z"/><path class="cls-10" d="M315.93,228.86c-6.95.95-15.3,2.6-20.91,7a.83.83,0,0,0,.72,1.47c7.22-1.69,13.75-4.87,21.2-6s14.72-.63,22.12.07a.69.69,0,0,0,.29-1.35A57.26,57.26,0,0,0,315.93,228.86Z"/><path class="cls-10" d="M284.16,171.54c5.92,3.05,6.26,7.93,6.5,14.12q.3,7.8-.08,15.6c-.55,11-2.67,21.53-4.09,32.37-.12.88,1.24,1.53,1.58.56,4.42-12.42,5.68-26.44,6-39.55.16-6.55,2.06-26.62-9.32-25.81A1.45,1.45,0,0,0,284.16,171.54Z"/><path class="cls-10" d="M308.51,161.85c0,2.13.82,3.71-.08,5.86a7,7,0,0,1-4.62,4.06.59.59,0,0,0,.22,1.14,7.24,7.24,0,0,0,5.91-4.71c.8-1.95,1.25-5.41-.87-6.72C308.81,161.32,308.51,161.58,308.51,161.85Z"/><path class="cls-10" d="M307.5,151.44c.95,1.16,2.05,2.26,2.2,3.83a4.16,4.16,0,0,1-2.74,4.21.8.8,0,0,0,.51,1.51,5.78,5.78,0,0,0,4.22-5.11c.14-2.23-1.27-4.95-3.71-5.15C307.64,150.7,307.21,151.08,307.5,151.44Z"/><path class="cls-10" d="M330.53,151.46a.4.4,0,0,0,.13.71c2.38.5,4.07,2.76,2.87,5.19-1,2.13-3.53,3.39-5.52,4.48-.64.35-.11,1.45.57,1.16,3-1.32,7.12-3.38,7.07-7.26C335.61,153.43,333.17,149.59,330.53,151.46Z"/><path class="cls-10" d="M340.6,136.24a.6.6,0,0,0-.2,1c1.3,1,2.62,1.45,3.44,3a6,6,0,0,1,.68,2.48,12,12,0,0,1,0,2.47c0,.06.07.08.11.05.52-.49,1-.43,1.32-1.08a4.31,4.31,0,0,0,.38-1.49,6.16,6.16,0,0,0-.63-3.35C344.87,137.57,342.72,135.46,340.6,136.24Z"/><path class="cls-10" d="M324.27,144.35c-.45.13-.32.71.05.83a5,5,0,0,1,3.37,2.94,3.51,3.51,0,0,1-2.43,4.19.91.91,0,0,0,.58,1.73,5.3,5.3,0,0,0,3.81-6.21A4.47,4.47,0,0,0,324.27,144.35Z"/><path class="cls-10" d="M353.06,151c-1.3.93-2.57,1.9-3.78,2.94A.65.65,0,0,0,350,155c1.4-.78,2.74-1.64,4.05-2.54a8.81,8.81,0,0,0,3-2.58.56.56,0,0,0-.53-.8A8.89,8.89,0,0,0,353.06,151Z"/><path class="cls-10" d="M365,131.11c1.4,1.36,3.49,1.68,4.75,3.28a3.06,3.06,0,0,1-.59,4.53.81.81,0,0,0,.49,1.47c2.61-.29,3.5-3.3,2.86-5.54-.79-2.72-4.32-5-7.13-4.84A.64.64,0,0,0,365,131.11Z"/><path class="cls-10" d="M388.43,129.84a4.44,4.44,0,0,1,.88,2.07,2,2,0,0,1-1,1.93c-1,.44-.5,2,.54,1.59a3.52,3.52,0,0,0,2.3-3.42c0-1.29-.76-3.13-2.31-3A.55.55,0,0,0,388.43,129.84Z"/><path class="cls-8" d="M380.71,163a157.76,157.76,0,0,0-42.12,23.25c-12,9.3-24.4,20.79-31.69,34.28a.57.57,0,0,0,.93.63c10.76-11.94,20.5-23.85,33.48-33.6a149.45,149.45,0,0,1,40.36-21.74c26.3-9.17,51.43-7.6,78.66-7.63-1,0-4.42-3.56-5.75-4.12a12.94,12.94,0,0,0-6.36-1c-5.21.22-10.36.83-15.72.84A151.43,151.43,0,0,0,380.71,163Z"/><path class="cls-8" d="M402.48,146.6c-20.15,3.93-39.8,10.82-57.52,21.26-.87.52,0,1.73.86,1.29,18.16-9.23,37.24-16.4,57.28-20.25a198.09,198.09,0,0,1,29.45-3.4c10-.39,19.81.73,29.75.79a.82.82,0,0,0,.13-1.62c-9.64-2.14-20.21-1.9-30-1.52A195.58,195.58,0,0,0,402.48,146.6Z"/><path class="cls-8" d="M361.35,188.23a83.63,83.63,0,0,0-25.51,27c-.53.89.88,1.57,1.42.72a87,87,0,0,1,26-26.13,84.43,84.43,0,0,1,16.19-8.16c5.54-2.07,11.34-3.11,16.93-5a.61.61,0,0,0-.23-1.19C384.12,175.24,371.16,181.71,361.35,188.23Z"/><path class="cls-10" d="M256.63,263.47a3.16,3.16,0,0,1-.93-2.6c.38-1.33,2.2-1.52,3.55-1.24,3.94.83,11.6,8.44,10.51,13C267.58,281.76,258.79,266.31,256.63,263.47Z"/><path class="cls-12" d="M254.49,213a22.85,22.85,0,0,0,1.3,16.85c7.52,1.18,6.17-12,6.32-16.41.07-1.95-.29-4.33-2.1-5.09C257.49,207.23,255.22,210.31,254.49,213Z"/><path class="cls-13" d="M255.81,214.65c-.36.61-2.27,10.18-1.26,10.26,4.39.35,5.81-4.48,5.79-7.95,0-1.51-.52-3.35-2-3.66A2.56,2.56,0,0,0,255.81,214.65Z"/><path class="cls-12" d="M291.79,262.81c2.44-2,11.9-7.73,15-4.71,3.66,3.52-3.18,7.41-5.95,8.24-1.72.51-9.3,2.31-10.51,1.12S290.37,264,291.79,262.81Z"/><path class="cls-13" d="M304.84,261A9.35,9.35,0,0,0,294,265.24a9.15,9.15,0,0,0,10.23-3c1.95-.23,1.61-.77.14-2.06"/><path class="cls-10" d="M488.66,165.24c19.68,21.94,39.76,44.22,65,59.44a167.6,167.6,0,0,0-41.36-51.14,344.3,344.3,0,0,1,39.14,13.22,89.32,89.32,0,0,0-71.88-28.36l15.93,14.23"/><path class="cls-8" d="M290.11,171.66,299.53,146c2.52-6.86,5.24-14,10.73-18.85a46.84,46.84,0,0,1-20.62,45.23l-1.26-.13"/><path class="cls-10" d="M339,228.33l36.25-.51c0-4.44-5.19-6.92-9.59-7.48a35.68,35.68,0,0,0-27.55,8.39"/><path class="cls-10" d="M415.21,161a157.15,157.15,0,0,0-22.13,4.47,169.5,169.5,0,0,0-22.52,7.94c-6.25,2.74-13,5.67-18.15,10.24-.38.35.09,1,.54.81,6.89-2.5,13.22-6.52,20-9.36a146.63,146.63,0,0,1,20.19-6.83,154.37,154.37,0,0,1,22.27-4q5.1-.53,10.21-.75c3.44-.14,7.28.43,10.52-.78a1.21,1.21,0,0,0,.15-2.19C430.31,158.23,421.46,160.23,415.21,161Z"/><path class="cls-10" d="M385.1,155.17c-1,.35-.72,1.92.35,1.8,14.85-1.66,29.25-4.55,44.28-4.78,15.47-.24,30.54,1.66,45.72,4.43a1.73,1.73,0,0,0,.72-3.38,189.91,189.91,0,0,0-45.73-4.48C415.58,149,399.19,150.05,385.1,155.17Z"/><path class="cls-11" d="M278.54,254.53a1.89,1.89,0,0,0-1,2.83,1.92,1.92,0,0,0,3,.21,8.33,8.33,0,0,0,.76-1.17c.61-.9-.36-2.1-1.32-2A8,8,0,0,0,278.54,254.53Z"/><path class="cls-11" d="M292.37,248.46a1.9,1.9,0,0,0,2.93,1.46l.23-.15a1.74,1.74,0,0,0-.18-3l-.25-.13A1.9,1.9,0,0,0,292.37,248.46Z"/><path class="cls-11" d="M274.77,220.81A4.45,4.45,0,0,0,277.5,229a5.4,5.4,0,0,0,3.4-1.2,4.75,4.75,0,0,0,1-1.07,11.05,11.05,0,0,0,.53-1.11,4,4,0,0,0-1.78-5.14l.56.38-.95-.64a5.38,5.38,0,0,0-5.47.63Z"/><path class="cls-11" d="M282.41,225.58s0,.11-.05.16C282.7,224.92,282.61,225.14,282.41,225.58Z"/><path class="cls-11" d="M274.07,233.89l-.43.36a2,2,0,0,0,.2,3.41c.15.11.31.21.47.31,1.55,1,3.52-.6,3.43-2.25S275.49,232.71,274.07,233.89Z"/></g><g class="cls-4"><path class="cls-8" d="M366.06,256.05c-.11-.27-.22-.53-.32-.81,13.12,10.44,30.59.22,42.17-9.23,2.14-1.74,4.08-3.46,5.75-5,2.72-2.53,7.42-4.06,11.28-4.65,1.76-.27,3.8-.32,5.07.8a4.83,4.83,0,0,1,1.27,3.75,32.55,32.55,0,0,1-2.68,13.4c-1,2.23-2.77,3-4.59,4.54a45,45,0,0,1-6.19,4.42A45.52,45.52,0,0,1,403,268.74C390.29,271,371.31,268.23,366.06,256.05Z"/><path class="cls-9" d="M403,268.74a45.52,45.52,0,0,0,14.85-5.49,45,45,0,0,0,6.19-4.42c1.82-1.54,3.61-2.31,4.59-4.54a32.55,32.55,0,0,0,2.68-13.4c0-.1,0-.21,0-.32a32.71,32.71,0,0,1-2.66,12.31c-1,2.23-2.78,3-4.59,4.54a44.22,44.22,0,0,1-21,9.91c-12.2,2.2-30.23-.31-36.25-11.35-.33-.24-.66-.48-1-.74.1.28.21.54.32.81C371.31,268.23,390.29,271,403,268.74Z"/><path class="cls-10" d="M407.75,248.78a5.59,5.59,0,0,1,2.74-2.07,16.66,16.66,0,0,1,2.93-.39,34.69,34.69,0,0,0,7.64-1.5,15.08,15.08,0,0,1-2.43,0c-.91.07-1.81.23-2.72.36s-3.12.68-3.33-.72a2.33,2.33,0,0,1,.63-1.63,13.94,13.94,0,0,1,4.56-4.24l-3.7,2.09a24.37,24.37,0,0,0-3.72,2.4c-1.07.89-1.52,2.05-2.47,3a55.08,55.08,0,0,1-9.46,6.75,51.55,51.55,0,0,1-10.92,5.23c-7.52,2.47-15.58,2.11-21.76-2.81.1.28.21.54.32.81a16.66,16.66,0,0,0,2.39,3.9c.87,1.07,3.84,1.72,5.21,2a21,21,0,0,0,5.65.51,32.72,32.72,0,0,0,11.5-2.82,62.28,62.28,0,0,0,10.89-6.11c1.67-1.15,3.3-2.36,4.88-3.61A8.09,8.09,0,0,0,407.75,248.78Z"/><path class="cls-11" d="M374.68,261.2c-1.86-1.08-3.62-2.34-5.34-3.52,8.84,6.09,20,2.57,29-1.28a35.59,35.59,0,0,0,5.88-3.14,32.48,32.48,0,0,0,2.63-2c.42-.35,1.11-1.46,1.46-1.64a50.5,50.5,0,0,1-7.53,3.16c1.45-1.6,4.05-1.89,5.87-3.14.86-.59,1.53-1.38,2.37-2a8.19,8.19,0,0,1,4.16-1.07,55.19,55.19,0,0,0,7.36-.9c.09,2.54-3.32,4.27-3.49,6.8-.14,2.1.71,3.59-1.49,5-2,1.27-4.91,1.45-7,2.57a38.78,38.78,0,0,1-13.91,4.43,41.81,41.81,0,0,1-14.11-.87A21.4,21.4,0,0,1,374.68,261.2Z"/><path class="cls-10" d="M415,245.81a12.62,12.62,0,0,0,5.56-1.33c.2-.13.08-.39-.17-.35-1.9.28-3.66.93-5.62,1.08a27.74,27.74,0,0,1-5.76-.33c-.23,0-.32.24-.1.31A16.64,16.64,0,0,0,415,245.81Z"/><path class="cls-10" d="M422.34,259.58c-1.5-.8-1.51-1.93-1.48-3.38,0-1.21.12-2.41.27-3.62.32-2.54,1-5,1.58-7.46,0-.2-.3-.37-.4-.15a27.19,27.19,0,0,0-2.19,9.1c-.14,1.52-1,6.15,2,6.13A.33.33,0,0,0,422.34,259.58Z"/><path class="cls-10" d="M415.83,261.48c0-.49-.15-.87.12-1.36a1.83,1.83,0,0,1,1.27-.88.13.13,0,0,0,0-.26,1.88,1.88,0,0,0-1.62,1c-.24.44-.41,1.24.12,1.57A.1.1,0,0,0,415.83,261.48Z"/><path class="cls-10" d="M415.93,263.92a1.66,1.66,0,0,1-.51-.93,1,1,0,0,1,.78-.94.18.18,0,1,0-.11-.35,1.42,1.42,0,0,0-1.18,1.12,1.1,1.1,0,0,0,.89,1.25C415.89,264.09,416,264,415.93,263.92Z"/><path class="cls-10" d="M409.93,263.59a.09.09,0,0,0,0-.17c-.61-.15-1-.7-.66-1.25a3.18,3.18,0,0,1,1.51-1c.17-.07.05-.34-.13-.28-.82.27-1.91.69-2,1.59C408.63,263.05,409.21,264,409.93,263.59Z"/><path class="cls-10" d="M407.06,267c.1,0,.16-.16.07-.23-.32-.24-.66-.38-.85-.74a1.35,1.35,0,0,1-.14-.59,2.1,2.1,0,0,1,0-.57s0,0,0,0-.26.09-.36.24a1,1,0,0,0-.13.34,1.25,1.25,0,0,0,.12.78C406,266.61,406.5,267.13,407.06,267Z"/><path class="cls-10" d="M411.45,265.32c.12,0,.09-.16,0-.19a1.22,1.22,0,0,1-.83-.73.82.82,0,0,1,.7-.94c.29-.07.17-.46-.13-.41a1.25,1.25,0,0,0-1.09,1.39A1.15,1.15,0,0,0,411.45,265.32Z"/><path class="cls-10" d="M404,263.37a11.06,11.06,0,0,0,1-.63c.17-.11,0-.34-.17-.25-.38.16-.74.34-1.1.53a2.24,2.24,0,0,0-.82.55.13.13,0,0,0,.12.2A2.35,2.35,0,0,0,404,263.37Z"/><path class="cls-10" d="M400.63,267.82c-.35-.33-.89-.44-1.19-.82a.67.67,0,0,1,.23-1.05.19.19,0,0,0-.11-.35,1,1,0,0,0-.83,1.25,2,2,0,0,0,1.78,1.22A.15.15,0,0,0,400.63,267.82Z"/><path class="cls-10" d="M394.49,267.79a1,1,0,0,1-.2-.5.46.46,0,0,1,.29-.43.2.2,0,1,0-.12-.38.85.85,0,0,0-.65.76c0,.3.15.74.55.74A.13.13,0,0,0,394.49,267.79Z"/><path class="cls-8" d="M397,260.19a43.26,43.26,0,0,0,11.35-4.8c3.28-2,6.7-4.49,8.81-7.52.09-.12-.11-.26-.23-.16-3,2.62-5.73,5.25-9.27,7.34a41.5,41.5,0,0,1-10.86,4.47c-7,1.76-13.54,1-20.64.66.27,0,1.1.89,1.44,1a3.67,3.67,0,0,0,1.64.32c1.36,0,2.72-.05,4.11,0A44.09,44.09,0,0,0,397,260.19Z"/><path class="cls-8" d="M391.09,263.7a52,52,0,0,0,15.33-4.13c.24-.11,0-.4-.2-.31A61.87,61.87,0,0,1,391,263.15a58.69,58.69,0,0,1-7.73.38c-2.61,0-5.16-.45-7.75-.61a.19.19,0,0,0-.06.38,35.14,35.14,0,0,0,7.81.77A57.39,57.39,0,0,0,391.09,263.7Z"/><path class="cls-8" d="M402.47,254.61a21.13,21.13,0,0,0,7.08-5.9c.15-.2-.21-.38-.36-.19a22,22,0,0,1-7.2,5.7,24,24,0,0,1-4.35,1.67c-1.47.4-3,.56-4.49.91-.18,0-.14.27,0,.28C396.33,257.3,399.81,256,402.47,254.61Z"/><path class="cls-10" d="M431,238.61c.14.19.28.41.2.62s-.6.32-.95.24c-1-.25-2.89-2.13-2.53-3.17C428.4,234.21,430.45,237.92,431,238.61Z"/><path class="cls-12" d="M430.73,250.38a4.76,4.76,0,0,0-.08-3.93c-1.94-.38-1.79,2.7-1.9,3.72-.05.45,0,1,.46,1.21C429.86,251.66,430.5,251,430.73,250.38Z"/><path class="cls-13" d="M430.41,250c.1-.14.75-2.34.49-2.37-1.14-.14-1.58,1-1.64,1.76,0,.36.09.79.47.88A.7.7,0,0,0,430.41,250Z"/><path class="cls-12" d="M421.79,238.27c-.67.43-3.23,1.63-4,.88s.95-1.68,1.68-1.83c.46-.09,2.47-.4,2.76-.11S422.18,238,421.79,238.27Z"/><path class="cls-13" d="M418.35,238.51a2.61,2.61,0,0,0,2.9-.84,2.6,2.6,0,0,0-2.71.55c-.51,0-.44.15-.07.48"/><path class="cls-10" d="M368.91,258.15c-4.79-5.38-9.68-10.84-16-14.73a39.34,39.34,0,0,0,10,12.46,93.77,93.77,0,0,1-10-3.62,24.56,24.56,0,0,0,18.3,7.6l-3.93-3.53"/><path class="cls-8" d="M420.79,259.47c-1,1.94-1.91,3.88-2.87,5.83a10.23,10.23,0,0,1-3.09,4.22,10.64,10.64,0,0,1,6.09-10.21l.33.05"/><path class="cls-10" d="M408.93,245.61l-9.47-.39c-.06,1,1.25,1.68,2.39,1.87a10.19,10.19,0,0,0,7.31-1.56"/><path class="cls-10" d="M388,260.16a47.68,47.68,0,0,0,5.85-.72,48.67,48.67,0,0,0,6-1.53,18.69,18.69,0,0,0,4.9-2.12c.1-.08,0-.23-.13-.2-1.83.49-3.55,1.33-5.36,1.89a40.79,40.79,0,0,1-5.37,1.3,44.41,44.41,0,0,1-5.87.61c-.89,0-1.79.05-2.68,0a10.53,10.53,0,0,0-2.75,0,.27.27,0,0,0-.08.51C384,260.6,386.35,260.26,388,260.16Z"/><path class="cls-10" d="M395.75,262a.21.21,0,0,0-.06-.42c-3.9.17-7.7.64-11.62.48a67.5,67.5,0,0,1-11.86-1.68.41.41,0,1,0-.24.78,55.53,55.53,0,0,0,11.86,1.69A41.38,41.38,0,0,0,395.75,262Z"/><path class="cls-11" d="M425.11,240.38a.43.43,0,0,0,.3-.64.54.54,0,0,0-.78-.09,1.71,1.71,0,0,0-.21.26c-.18.2.06.49.31.48A2.41,2.41,0,0,0,425.11,240.38Z"/><path class="cls-11" d="M421.41,241.59a.5.5,0,0,0-.74-.38l-.06,0a.38.38,0,0,0,0,.69l.06,0A.5.5,0,0,0,421.41,241.59Z"/><path class="cls-11" d="M425.56,248.27a1,1,0,0,0,.54-1.17,1.18,1.18,0,0,0-1.12-.77,1.64,1.64,0,0,0-.9.23,1.31,1.31,0,0,0-.28.24,2,2,0,0,0-.15.25.88.88,0,0,0,.38,1.22l-.14-.1.24.17a1.48,1.48,0,0,0,.51.13A1.53,1.53,0,0,0,425.56,248.27Z"/><path class="cls-11" d="M423.65,247.05s0,0,0,0C423.56,247.2,423.59,247.15,423.65,247.05Z"/><path class="cls-11" d="M426,245.24l.12-.08a.45.45,0,0,0,0-.8l-.12-.07a.59.59,0,1,0,0,1Z"/></g><g class="cls-4"><path class="cls-14" d="M250.71,338.62c.31-1.94.91-2.15,1.78-1.83a36.31,36.31,0,0,0,12,5c7.78,1.78,19.49-2.5,35.74-11.86s23.06-20,23.06-20h0a2.78,2.78,0,0,0-.3.64c-1.91,3-.15,10.3,7.68,16.48s13.64,6.45,18,5.6a8.25,8.25,0,0,0,4.62-2.33h0s-6.92,14.08-20.25,22.6S306.68,369.21,288.41,367s-26.68-18.12-26.68-18.12c-5-.07-9.07-4-10.08-4.15S250.4,340.56,250.71,338.62Z"/><path class="cls-15" d="M250.76,338.33c.32-1.67.9-1.84,1.73-1.54a36.31,36.31,0,0,0,12,5c7.78,1.78,19.49-2.5,35.74-11.86s23.06-20,23.06-20a2.78,2.78,0,0,0-.3.64c-1.91,3-.15,10.3,7.68,16.48l.69.54c-3.46,4.24-10.95,10.92-26.42,16.89-25,9.65-38.43,1.3-38.43,1.3S255.56,343,250.76,338.33Z"/><path class="cls-14" d="M330.33,318.94c0-.54-1.27-.26-1,.24s1.21.05.91-.3"/><path class="cls-14" d="M330.61,313.37c-.1-.31-1.27-1.75-1.44-.86-.1.52,1.29,1.28,1.69.79"/><path class="cls-14" d="M348.32,332.86c-.91,3.63-5.2,6.91-7.67,9.43-5.61,5.7-12.43,9-19.11,13.14"/><path class="cls-14" d="M319.47,356.88a3.43,3.43,0,0,1-1.19,1"/><path class="cls-14" d="M311.85,360.48a2.87,2.87,0,0,1-1.09.45"/><path class="cls-14" d="M344.81,332.69c2.2,2.2-12.91,12.73-14.46,13.48"/><path class="cls-14" d="M328.81,347.43a2.59,2.59,0,0,0-.9.75"/><path class="cls-14" d="M322.61,351.61a57.48,57.48,0,0,1-6.5,3.88c-2.64,1.33-6.29,3.57-9.26,3.79"/><path class="cls-14" d="M303.17,360.72h-.66"/><path class="cls-14" d="M332.52,335.3c-4.12,6.39-12.85,11-19.55,13.88"/><path class="cls-14" d="M310.28,350.94a1.57,1.57,0,0,1-.82.34"/><path class="cls-14" d="M334.26,329.36a9.25,9.25,0,0,0-1,1.65,20.57,20.57,0,0,1-3.83,4.4c-4.86,4.53-11.11,7.77-16.86,11"/><path class="cls-14" d="M309.67,348.56a5.73,5.73,0,0,0-.73.26"/><path class="cls-14" d="M304.44,350.76l-.65.18"/><path class="cls-14" d="M336.57,337c-1.65,1.69-3.25,3.47-5,5s-4.22,3.75-6.51,4.5"/><path class="cls-14" d="M318.74,350.59a1.71,1.71,0,0,1-.9.26"/><path class="cls-14" d="M251.92,342.53a29.69,29.69,0,0,0,3.14,1.93"/><path class="cls-14" d="M259.54,347.53l.41.4"/><path class="cls-16" d="M250.71,338.62c.31-1.94.91-2.15,1.78-1.83a36.31,36.31,0,0,0,12,5c7.78,1.78,19.49-2.5,35.74-11.86s23.06-20,23.06-20h0a2.78,2.78,0,0,0-.3.64c-1.91,3-.15,10.3,7.68,16.48s13.64,6.45,18,5.6a8.25,8.25,0,0,0,4.62-2.33h0s-6.92,14.08-20.25,22.6S306.68,369.21,288.41,367s-26.68-18.12-26.68-18.12c-5-.07-9.07-4-10.08-4.15S250.4,340.56,250.71,338.62Z"/><path class="cls-14" d="M323,310.54s1.34-4.89,10.52-2.4,17.11,10.62,19.91,15.6-.31,8-4.71,8.88-10.21.59-18-5.6S321.1,313.57,323,310.54Z"/><path class="cls-2" d="M324.8,309.92s4.45-2.9,12.71,1.05S352,322,353,326.08s-5.07,7-12,5.16-14.61-8.95-16.61-13.83S323.64,310.43,324.8,309.92Z"/><path class="cls-17" d="M341.4,320.41a8.13,8.13,0,0,0,1.64-.22c1-.22.64-.72,0-1.18a1.4,1.4,0,0,0-2.05.12c-.65.73-1.31.52-2,.2s-1.43-2.08-2.1-2.73-2-1.08-2.23-.2-.5,1.29,1.18,2.17,3,.87,2.28,1.65-2.56,1-2.33,1.77,1,1.44,1.9.73.77-1.36,1.94-.71.18,1.79,1.75,1.64,2.93.06,1.94-1S341.31,321,341.4,320.41Z"/><path class="cls-14" d="M346.49,323c.12,0,.26-.18.39-.19s1,.44.92.75c-.19.57-1.51-.1-1.46-.66"/><path class="cls-14" d="M343.26,326.34c.34-.22,1.24,1.24.86,1.48-.21.13-.77-.39-.85-.56s.05-.59,0-.86"/><path class="cls-14" d="M338.26,326.37a.31.31,0,0,0-.53,0,.25.25,0,1,0,.43-.26"/><path class="cls-14" d="M337.34,313.29c.32-.45-.56-.47-.76-.09.22.35.51.36.89.34"/><path class="cls-14" d="M349.4,327.1c.15.27,1.48,1.28.89,1.52s-1-.78-.66-1.2"/></g><g class="cls-4"><path class="cls-18" d="M602,269.33l37.15-6.55-.45,2.9-36,5.08,1,.18Z"/><path class="cls-19" d="M601.89,268.9A134.55,134.55,0,0,1,636.47,267a4.28,4.28,0,0,1-3.57,3,15.22,15.22,0,0,1-4.89-.26c-8-1.15-16.16-.19-24.2.76Z"/><path class="cls-18" d="M603.3,268a87.6,87.6,0,0,1,25.35,2.52,10.39,10.39,0,0,1-2.56,3.78,44.44,44.44,0,0,0-22.69-5.64Z"/><path class="cls-19" d="M602.61,269.19c10.3-6.07,21.52-9.24,32.71-13a3.74,3.74,0,0,1,.73-.19c3-.35,1.89,3.17.31,4.17-2.1,1.33-5.13,1.8-7.5,2.42a265,265,0,0,0-26.55,8.45c-.14-.78-.29-1.56-.43-2.34"/><path class="cls-19" d="M604.25,266.19c1.64-2,5.33-3.52,7.48-5q3.87-2.7,7.64-5.56c4.51-3.41,9.73-7,13-11.63,1.05.79,2.18,1.53,3.14,2.41-2.08,1.52-2.88,3.58-5.16,5L603.72,268Z"/><path class="cls-18" d="M602.9,268.69l32.74-18.94c.38,2.64-2.2,4.67-4.5,6a184.42,184.42,0,0,1-27.78,13.3"/><path class="cls-18" d="M601.61,267.18a112.48,112.48,0,0,0,22.62-18.73,3.42,3.42,0,0,1,1.14-.9,1.21,1.21,0,0,1,1.36.23c.56.68-.12,1.66-.76,2.26-2.22,2.08-4.2,4.57-6.45,6.54-2.68,2.34-6.16,4.14-9.07,6.23l-7,5.05Z"/><path class="cls-20" d="M582.6,285.4c-10.22,1.37-20.6,2.13-30.81,3.31s-20.92,4.2-31.12,4.54c-1.93.06-17.77-1.26-17.8-1.23,6.13-6.38,13.64-5.67,21.26-8.55,9-3.38,17.79-7.15,26.48-11.18,9.32-4.32,20.57-9.89,30.6-12,8.94-1.84,29.68-4.79,26.5,10.66-1.69,8.21-10.41,12.08-17.89,13.33C587.42,284.73,585,285.08,582.6,285.4Z"/><path class="cls-21" d="M519.44,285.87c9.43-1.13,18-4.23,26.82-8.3.53-.25,6.4-3.33,6.63-3.12l2.06,2a8.3,8.3,0,0,1-.4-4.07,10.15,10.15,0,0,1,3.59,4.3c-.93-7.41,9.18-8.13,14.31-9.94,2.34-.82,4.52-2.23,7.09-1.48a6.26,6.26,0,0,1,4.06,3.85L582.4,264c1,1,2,2.09,3,3.13.38-1.2.75-2.4,1.13-3.6l4.2,5.31c0-1.57-.11-3.14-.16-4.7,1.9-1.47,4.8-.78,6.55.86s2.6,4,3.41,6.25a24.17,24.17,0,0,0-1.05-8.49,14.66,14.66,0,0,1,7.56,11.3c0-.12.85-1.45.93-1.8a15.58,15.58,0,0,0-.08-2.54c0-1.75.21-3.33-.47-5-1.14-2.83-3.76-4.32-6.57-5.1-6.27-1.74-13.44-.53-19.68.75-10,2.07-21.28,7.64-30.6,12-6.34,2.94-12.75,5.74-19.23,8.35a65.45,65.45,0,0,1-9.22,3.41c-2.3.54-5.73,2.14-8,2.23C516,286.21,517.71,286.07,519.44,285.87Z"/><path class="cls-22" d="M607.71,271a10.86,10.86,0,0,0,.27-2.89c.26,2.71-5.18,5.86-7,7.12a14.53,14.53,0,0,0-5-11.66c-.16-.14-.41-.28-.57-.14s-.06.44.07.64a17.28,17.28,0,0,1,2.79,7.46,8.72,8.72,0,0,1-.52,4.75c-1.3,2.81-5.08,4-7.87,4.57-2.32.46-5,2.27-6.85-.15-1.16-1.57-.93-3.73-.65-5.66-1.09.61-1.17,2.11-1.23,3.36s-.52,2.78-1.76,2.95c-.64.09-1.34-.24-1.92.05-.32.16-.58.49-.93.46s-.61-.66-.62-1.13c0-1.83-.07-3.65-.11-5.47,0-.62-.37-1.48-.93-1.23-.33.14-.39.56-.4.91-.05,1.54-.1,3.07-.16,4.61a3.05,3.05,0,0,1-.34,1.58c-.81,1.22-2.47.67-3.64,1.07-1.35.47-2.28,1.38-3.76,1.77-3.42.91-7.05.68-10.54.41a33,33,0,0,0-9.92.42c-1,.21-9.13,3.08-8.75,3.85-.85-1.71-1.69-3.43-2.54-5.15-.3,1.21.09,2.47,0,3.72s-.84,2.68-2.08,2.6A2.28,2.28,0,0,1,531,288c-.23-.89-.17-1.84-.39-2.74a2.28,2.28,0,0,0-1.68-1.87c.22,1.19,1.51,3.3,1,4.5-.54,1.38-3,1.73-4.24,2-3.41.67-6.93.28-10.38.28-4.12,0-8.32.73-12.46.85,5.73-.17,11.79,2.48,17.79,2.29,10.2-.34,20.86-3.35,31.12-4.54s20.59-1.94,30.81-3.31c2.41-.32,4.82-.67,7.22-1.08C597.3,283.07,606,279.2,607.71,271Z"/><path class="cls-22" d="M550.28,273.12c-.07-.07-.17.05-.1.11S550.36,273.18,550.28,273.12Z"/><path class="cls-22" d="M556.23,277.81a5.81,5.81,0,0,0-.66-3,12.62,12.62,0,0,0-1.66-3,.29.29,0,0,0-.48.34,17.85,17.85,0,0,1,1.53,3.06,15,15,0,0,0,.88,2.68A.22.22,0,0,0,556.23,277.81Z"/><path class="cls-22" d="M559.4,280c.44-2.94-1.27-6.62-3-8.91a.31.31,0,0,0-.5.35,23.82,23.82,0,0,1,2.07,4.36c.46,1.39.58,2.86,1,4.24A.21.21,0,0,0,559.4,280Z"/><path class="cls-22" d="M585.21,266.72a6.24,6.24,0,0,0-1.24-2.27c-.62-.89-1.29-1.74-2-2.59a.28.28,0,0,0-.45.32c.5.89,1,1.78,1.55,2.64a6.5,6.5,0,0,0,1.69,2.12C585,267.05,585.25,267,585.21,266.72Z"/><path class="cls-22" d="M590.54,275.41c.74-4.49-1.6-10-4.24-13.47a.3.3,0,0,0-.49.34,30.65,30.65,0,0,1,3,6.3c.71,2.24.81,4.54,1.33,6.82A.23.23,0,0,0,590.54,275.41Z"/><path class="cls-22" d="M524.39,286a1.1,1.1,0,0,0-.31-.66l-.55-.73a.29.29,0,0,0-.47.33c.18.25.35.5.53.74a1.11,1.11,0,0,0,.53.52A.2.2,0,0,0,524.39,286Z"/></g><g class="cls-4"><path class="cls-18" d="M503.16,376.9l11,14.39-1.62.72-10-14.33.1.49Z"/><path class="cls-19" d="M503.37,376.72a51.45,51.45,0,0,1,8.05,14.7,2,2,0,0,1-2.29-.65,6.24,6.24,0,0,1-.86-2.25c-1-3.91-3.18-7.22-5.31-10.48Z"/><path class="cls-18" d="M504.11,377.07a35.87,35.87,0,0,1,3.82,12,6,6,0,0,1-2.52.06,20,20,0,0,0-1.63-11.83Z"/><path class="cls-19" d="M503.36,377.13c5.29,2.65,9.25,6.62,13.49,10.39a1.11,1.11,0,0,1,.26.27c.79,1.21-1.29,1.83-2.14,1.45a10.25,10.25,0,0,1-2.8-2.57,101,101,0,0,0-9.85-9.09l1.15-.93"/><path class="cls-19" d="M505.28,376.91c1.38.1,2.94,1.25,4.16,1.73,1.48.57,3,1.12,4.49,1.63,2.72.92,5.64,2.12,8.78,2.11-.2.71-.36,1.45-.63,2.15-1.22-.44-2.48-.15-3.68-.71l-14.18-6.59Z"/><path class="cls-18" d="M503.68,377.1l16.65,8.53c-1.32,1-2.91.49-4.09-.1a71.91,71.91,0,0,1-12.67-8.11"/><path class="cls-18" d="M504.22,376.05a50.9,50.9,0,0,0,14.47,4.12,1.49,1.49,0,0,1,.71.22.52.52,0,0,1,.15.67c-.24.47-.89.47-1.34.38-1.55-.33-3.26-.42-4.76-.8a48.52,48.52,0,0,1-5.13-2.05l-4.09-1.52Z"/><path class="cls-20" d="M490.74,373.37c-2.8-4.1-5.31-8.45-8-12.6s-6.46-7.94-8.71-12.36c-.42-.83-2.94-8.26-3-8.27,4.61.7,5.76,4.25,8.83,6.73,3.6,2.9,7.38,5.62,11.27,8.2,4.17,2.77,9.4,6,12.53,9.79,2.78,3.37,8.55,11.63-.24,15.09-4.68,1.84-8.49-.81-10.67-3.72C492.08,375.3,491.4,374.34,490.74,373.37Z"/><path class="cls-21" d="M477.67,345.54a33,33,0,0,0,9.82,9.27,23.87,23.87,0,0,1,3,1.95l-.61,1.53a6.42,6.42,0,0,1,2.06-1.45,7.08,7.08,0,0,1-1.54,2.94c3.72-2.75,6.15,1.51,8.15,3.21.91.77,2.1,1.29,2.22,2.67a4,4,0,0,1-1.2,3l2.45-2.14-1,2.33,2.14-.63-1.95,3.53,2.45-1.55c1.15.38,1.38,1.88.87,3.17a11.78,11.78,0,0,1-2.61,3.48,19,19,0,0,0,4.27-3.14,10.56,10.56,0,0,1-4.43,6.91c.06,0,.94-.08,1.14-.16a12.08,12.08,0,0,0,1.33-.83,10.21,10.21,0,0,0,2.55-1.79,5.59,5.59,0,0,0,1.35-4.52c-.35-3.32-2.45-6.11-4.39-8.47-3.13-3.79-8.36-7-12.53-9.79-2.84-1.88-5.62-3.84-8.31-5.88a24.93,24.93,0,0,1-3.67-3c-.75-.85-2.3-1.87-2.8-2.85A25.07,25.07,0,0,0,477.67,345.54Z"/><path class="cls-22" d="M503.45,380a7.7,7.7,0,0,0,1.57-.79c-1.37,1-4.14-.45-5.17-.83a11.18,11.18,0,0,0,5.13-5.91c0-.12.07-.27,0-.3s-.24.11-.32.23a13.84,13.84,0,0,1-3.37,3.59,6.74,6.74,0,0,1-2.61,1.27c-1.75.3-3.15-1-4-2-.72-.88-2.23-1.53-1.32-3.08a6,6,0,0,1,2.86-2.07c-.55-.29-1.35.14-2,.51s-1.58.65-1.92.15c-.18-.25-.14-.67-.41-.84s-.38-.1-.44-.26.23-.48.47-.63c1-.59,1.92-1.18,2.87-1.78.32-.19.7-.63.46-.8s-.38,0-.56.12l-2.47,1.38a2.17,2.17,0,0,1-.9.34c-.81,0-.86-.88-1.31-1.27s-1.19-.58-1.69-1.11a12.08,12.08,0,0,1-2.36-4.54,12.58,12.58,0,0,0-2.23-4.26c-.31-.35-3.49-3.07-3.82-2.66l2.21-2.75a14.13,14.13,0,0,0-1.95,1.19c-.67.38-1.59.48-1.8-.1-.16-.42.18-1,.61-1.38s.94-.66,1.37-1a1.52,1.52,0,0,0,.64-1.33c-.58.47-1.43,1.71-2.16,1.88s-1.52-.77-1.91-1.26a20.58,20.58,0,0,1-2.25-4.5c-.84-1.83-2.08-3.46-3-5.26,1.25,2.49,1.08,6,2.4,8.6,2.25,4.42,6,8.19,8.71,12.36s5.21,8.5,8,12.6c.66,1,1.34,1.93,2,2.86C495,379.14,498.77,381.79,503.45,380Z"/><path class="cls-22" d="M490.66,355.18c0-.05-.06-.05-.08,0S490.64,355.24,490.66,355.18Z"/><path class="cls-22" d="M489.39,359.3a4.67,4.67,0,0,0,1.46-1.24,9.39,9.39,0,0,0,1.23-1.68c.12-.2-.14-.29-.27-.11a13,13,0,0,1-1.31,1.65,11.9,11.9,0,0,0-1.23,1.23C489.2,359.25,489.29,359.34,489.39,359.3Z"/><path class="cls-22" d="M488.88,361.4a10.5,10.5,0,0,0,4.08-4.15c.12-.2-.15-.3-.29-.11a18.52,18.52,0,0,1-1.87,2.29c-.64.64-1.4,1.16-2,1.8A.1.1,0,0,0,488.88,361.4Z"/><path class="cls-22" d="M501.13,368.64a4.61,4.61,0,0,0,.94-1.26c.35-.56.66-1.13,1-1.69.11-.19-.13-.28-.26-.1-.37.5-.74,1-1.08,1.52a4.39,4.39,0,0,0-.77,1.42A.12.12,0,0,0,501.13,368.64Z"/><path class="cls-22" d="M497.63,373.74c2.52-1.09,4.92-3.85,6.25-6.12.11-.21-.15-.3-.29-.11a24.11,24.11,0,0,1-2.72,3.29c-1,1-2.23,1.79-3.33,2.73C497.43,373.63,497.47,373.81,497.63,373.74Z"/><path class="cls-22" d="M478.6,347.78a.81.81,0,0,0,.28-.35l.28-.47c.11-.19-.16-.29-.27-.1l-.29.46a.75.75,0,0,0-.16.4C478.44,347.8,478.52,347.83,478.6,347.78Z"/></g><path class="cls-23" d="M599.58,517.36s-26.91-64.31-29.4-71.1c-3.58-9.74-10.22-8.95-10.22-8.95L418.36,426l-6.32-.5L270.45,414.25s-5.57-1.83-11.51,7.22c-4,6-40.29,65.56-40.29,65.56s-1.57,13.1,12.55,15.28c12.49,1.93,146.28,11.86,176.78,14.12,30.48,2.6,164.16,14,176.8,14C599.06,530.55,599.58,517.36,599.58,517.36Z"/><path class="cls-24" d="M599.58,517.36l-2.94-7.47c-1.57,3.76-5.21,8.32-13.62,8.27-12.65-.07-146.32-11.44-176.8-14-30.51-2.25-164.29-12.18-176.79-14.12-4.75-.73-7.72-2.71-9.58-5l-1.2,2s-1.57,13.1,12.55,15.28c12.49,1.93,146.28,11.86,176.78,14.12,30.48,2.6,164.16,14,176.8,14C599.06,530.55,599.58,517.36,599.58,517.36Z"/><line class="cls-25" x1="258.94" y1="421.47" x2="569.26" y2="446.19"/><line class="cls-25" x1="574.42" y1="456.82" x2="253" y2="431.22"/><line class="cls-25" x1="247.09" y1="443.11" x2="578.92" y2="469.53"/><line class="cls-25" x1="236.86" y1="457.26" x2="585.11" y2="484.99"/><line class="cls-25" x1="229.78" y1="471.36" x2="592.43" y2="500.24"/><line class="cls-25" x1="406.22" y1="504.12" x2="412.48" y2="425.56"/><line class="cls-25" x1="376.82" y1="500.68" x2="396.3" y2="424.27"/><line class="cls-25" x1="348.33" y1="499.79" x2="374.97" y2="423"/><line class="cls-25" x1="323.78" y1="497.55" x2="356.29" y2="421.51"/><line class="cls-25" x1="294.88" y1="495.68" x2="333.35" y2="419.26"/><line class="cls-25" x1="269.56" y1="493.24" x2="310.38" y2="417.43"/><line class="cls-25" x1="240.23" y1="490.9" x2="286.6" y2="415.47"/><line class="cls-25" x1="439.54" y1="505.67" x2="432.4" y2="427.15"/><line class="cls-25" x1="467.82" y1="509.31" x2="453.66" y2="429.26"/><line class="cls-25" x1="492.41" y1="510.98" x2="472.34" y2="430.75"/><line class="cls-25" x1="521.24" y1="513.7" x2="495.35" y2="432.16"/><line class="cls-25" x1="546.63" y1="515.3" x2="518.32" y2="433.99"/><line class="cls-25" x1="575.96" y1="517.63" x2="542.12" y2="435.82"/><path class="cls-26" d="M468.6,463c-1.55,10.12-31.65,13.93-67.24,8.51s-63.2-18-61.66-28.16,31.65-13.93,67.25-8.51S470.14,452.88,468.6,463Z"/><path class="cls-27" d="M486.14,249.77c7.23-10.1,16-20.09,27.43-25.53,4.93-2.35,9.7-4.17,14.87-2.23,5.82,2.19,9.13,7.63,4.74,13a28.35,28.35,0,0,1-6.14,5c-14.54,10-27.59,23.38-36.09,38.92-3.91,7.21-6.71,15.17-12.16,21.31-4.66,5.25-19.83,12.45-21.81.56-.5-3,.57-6,1.67-8.82,5.43-13.86,15.5-24.36,23.62-36.55C483.53,253.5,484.81,251.62,486.14,249.77Z"/><path class="cls-13" d="M468.32,298.32a64.29,64.29,0,0,1,4.73-10.88,111.09,111.09,0,0,1,46.22-45.5c3.45-1.79,7-3.42,9.92-6,5-4.57,6.52-11.17-.75-13.9-5.17-1.94-9.75.34-14.87,2.23-8.25,3-18.92,12.12-27.43,25.53-1.22,1.92-2.61,3.73-3.87,5.61-8.12,12.19-18.19,22.69-23.62,36.55-1.1,2.83-2.17,5.83-1.67,8.82,1,6.05,5.43,7.14,10.14,6.08A21.72,21.72,0,0,1,468.32,298.32Z"/><path class="cls-12" d="M524.91,231.5c-2.27,1.53-19.95,10.16-14.76.95,1.86-3.29,10.29-6.66,13.86-7a3.72,3.72,0,0,1,3.1.74,2.71,2.71,0,0,1,.17,3.08A7.09,7.09,0,0,1,524.91,231.5Z"/><path class="cls-28" d="M486.14,249.77c7.23-10.1,16-20.09,27.43-25.53,4.93-2.35,9.7-4.17,14.87-2.23,5.82,2.19,9.13,7.63,4.74,13a28.35,28.35,0,0,1-6.14,5c-14.54,10-27.59,23.38-36.09,38.92-3.91,7.21-6.71,15.17-12.16,21.31-4.66,5.25-19.83,12.45-21.81.56-.5-3,.57-6,1.67-8.82,5.43-13.86,15.5-24.36,23.62-36.55C483.53,253.5,484.81,251.62,486.14,249.77Z"/><path class="cls-29" d="M313.05,357.25c-3.07,9.05,22.29,30.82,29.79,35,20.24,11.37,48.43,9.18,70.6,5.63,34-5.45,81.47-29.21,78.92-69.8-.27-4.34-2.85-16.79-6.22-19.26-1.93-1.41-10.11-.26-12.91-.88a37.08,37.08,0,0,1-13.66-6.17l-1.44.59L345.91,348.18c-4.92,2-30.89,4.85-32.67,8.61C313.17,356.94,313.11,357.09,313.05,357.25Z"/><path class="cls-30" d="M473,371c12.34-11.11,20.49-25.44,19.39-42.88-.32-5.14-1.69-17.49-7.19-19.9-13.08-5.75-3.93,14.77-2.35,18.47,2,4.71,3,8.17,2.82,13.52C485.22,350.53,480.91,363.84,473,371Z"/><path class="cls-31" d="M366,387.23c-6.15-3.45-15.31-10.92-18.43-17.3-2.95-6-.37-16.65-7.41-19.47-3.62-1.44-25.05,3-26.73,6.59a3,3,0,0,0-.19.46c-3.08,9.06,22.12,30.56,29.62,34.77,20.24,11.37,48.43,9.18,70.6,5.63a127.15,127.15,0,0,0,17.8-4.24C410,396.67,384.64,397.71,366,387.23Z"/><path class="cls-31" d="M313.05,357.25c-3.07,9.05,34.35,26.65,95.83,14.2,78.45-15.89,82.94-48.95,81.64-52.81-1.46-4.29-2.61-8.49-4.38-9.79-1.93-1.41-10.11-.26-12.91-.88a37.08,37.08,0,0,1-13.66-6.17l-1.44.59L345.91,348.18c-4.92,2-30.89,4.85-32.67,8.61C313.17,356.94,313.11,357.09,313.05,357.25Z"/><path class="cls-28" d="M313.22,357.51c-3.07,9.06,22.12,30.56,29.62,34.77,20.24,11.37,48.43,9.18,70.6,5.63,34-5.45,81.47-29.21,78.92-69.8-.27-4.34-2.85-16.79-6.22-19.26-1.93-1.41-10.11-.26-12.91-.88a37.08,37.08,0,0,1-13.66-6.17l-1.44.59L345.91,348.18c-4.92,2-30.73,5.12-32.5,8.87A3,3,0,0,0,313.22,357.51Z"/><path class="cls-17" d="M486.57,329.27a33.32,33.32,0,0,1-2.18,3.28c0,.06-.07.1-.1.15-7.93,10.79-20.57,17.59-33.13,22.62-26.45,10.6-54.93,15.53-83.35,16-11.55.19-29.52.91-42.86-4.39a2.6,2.6,0,0,1-.36-.13c-8.42-3.42-14.93-9.29-16.71-19.32-1.65-9.38,2.39-19.11,8.72-26.23s14.77-12,23.29-16.3c32.44-16.39,69.14-26.17,105.64-25.15C472.14,280.54,505.09,298.2,486.57,329.27Z"/><path class="cls-32" d="M483.62,329.18a32.91,32.91,0,0,1-2.11,3.17c0,.06-.07.1-.09.15-7.66,10.42-19.87,17-32,21.85-25.55,10.24-53.07,15-80.52,15.45-11.16.18-28.52.88-41.41-4.24l-.35-.12c-8.14-3.31-14.42-9-16.14-18.67-1.6-9.07,2.31-18.46,8.42-25.34s14.27-11.6,22.5-15.75c31.34-15.84,66.8-25.28,102.06-24.3C469.68,282.11,501.51,299.17,483.62,329.18Z"/><path class="cls-13" d="M481.42,332.5c-7.66,10.42-19.87,17-32,21.85-25.55,10.24-53.07,15-80.52,15.45-11.27.19-28.84.9-41.76-4.36-.18-.66-.34-1.36-.47-2.08-1.4-7.9,2-16.05,7.32-22.05s12.43-10.09,19.59-13.72c27.26-13.77,58.14-22,88.82-21.13C459.87,306.93,480.55,316.08,481.42,332.5Z"/><path class="cls-33" d="M481.51,332.35c0,.06-.07.1-.09.15-7.66,10.42-19.87,17-32,21.85-25.55,10.24-53.07,15-80.52,15.45-11.16.18-28.52.88-41.41-4.24-.25-7,2.95-13.88,7.62-19.14,5.33-6,12.42-10.09,19.58-13.72,27.26-13.78,58.14-22,88.83-21.13C459,312,477.07,319.25,481.51,332.35Z"/><path class="cls-28" d="M486.57,329.27a33.32,33.32,0,0,1-2.18,3.28c0,.06-.07.1-.1.15-7.93,10.79-20.57,17.59-33.13,22.62-26.45,10.6-54.93,15.53-83.35,16-11.55.19-29.52.91-42.86-4.39a2.6,2.6,0,0,1-.36-.13c-8.42-3.42-14.93-9.29-16.71-19.32-1.65-9.38,2.39-19.11,8.72-26.23s14.77-12,23.29-16.3c32.44-16.39,69.14-26.17,105.64-25.15C472.14,280.54,505.09,298.2,486.57,329.27Z"/><path class="cls-28" d="M524.91,231.5c-2.27,1.53-19.95,10.16-14.76.95,1.86-3.29,10.29-6.66,13.86-7a3.72,3.72,0,0,1,3.1.74,2.71,2.71,0,0,1,.17,3.08A7.09,7.09,0,0,1,524.91,231.5Z"/><path class="cls-2" d="M359.71,322c-.48,6.93-11.52,11.81-24.66,10.9s-23.4-7.26-22.92-14.19,11.52-11.82,24.66-10.91S360.19,315,359.71,322Z"/><path class="cls-17" d="M352.35,331.33A38.16,38.16,0,0,1,335,333.85c-13.89-1-24.35-7.66-23.83-15.24.26-3.78,3.22-7.08,8.33-9.3a41.52,41.52,0,0,1,34.39,2.47c4.65,2.88,7.07,6.53,6.81,10.26S357.46,329.12,352.35,331.33Zm-32.09-20.22c-4.41,1.91-6.95,4.62-7.16,7.63-.43,6.28,9.65,12.3,22,13.16a36.24,36.24,0,0,0,16.45-2.36c4.41-1.91,6.95-4.62,7.16-7.64s-1.89-6-5.89-8.46a39.56,39.56,0,0,0-32.58-2.33Z"/><path class="cls-34" d="M359.71,321.85V322c-.48,6.93-11.52,11.81-24.66,10.9s-23.4-7.26-22.92-14.19l-.77,10.62c-.48,6.93,9.78,13.29,22.92,14.2,12.77.88,22.66-3.24,23.7-9.86h0l1.73-11.78Z"/><path class="cls-17" d="M351.2,342.16c-4.48,1.94-10.51,2.76-17,2.31-13.88-1-24.35-7.65-23.83-15.24l.77-10.62a1,1,0,1,1,2,.13c-.43,6.28,9.65,12.3,22,13.16a36.24,36.24,0,0,0,16.45-2.36c3.84-1.66,6.32-4,7-6.57l.18-1.27a1,1,0,0,1,.87-.83,1.13,1.13,0,0,1,.26,0l.1,0,.23.06a1,1,0,0,1,.42,1.68c0,.24-.09.47-.14.71L359,333.78s0,0,0,.06C358.38,337.29,355.63,340.24,351.2,342.16Zm-38.48-18.08-.39,5.29c-.43,6.27,9.65,12.29,22,13.15,6.16.43,11.87-.34,16.07-2.16,3.82-1.65,6.16-4.09,6.6-6.88v0l.84-5.68a17.86,17.86,0,0,1-5.51,3.57A38.16,38.16,0,0,1,335,333.85C324.58,333.13,316.1,329.2,312.72,324.08Z"/><path class="cls-17" d="M325.47,317.18s3.63,1.58,5.71,1.28a2.36,2.36,0,0,0,2.11-2.25s.55,1.43,1.84,1a6.65,6.65,0,0,0,2.52-2.23s-1.93,4.05-.18,5.16a17.75,17.75,0,0,0,4.12,1.77s-6.07-.25-6.68.82a7.34,7.34,0,0,0-.73,2.62s-.27-3.39-1.41-2.77-3.69,4-3.69,4,1.64-4.26,1.4-5S328.06,318.59,325.47,317.18Z"/><path class="cls-17" d="M327,324.93a.68.68,0,1,1-1.24.54.68.68,0,1,1,1.24-.54Z"/><path class="cls-17" d="M341.19,326.11a1.45,1.45,0,0,1-2.59,1.12,1.28,1.28,0,0,1,.85-1.57A1.29,1.29,0,0,1,341.19,326.11Z"/><path class="cls-17" d="M351.33,322.92a.93.93,0,0,1-1.64.71.93.93,0,0,1,1.64-.71Z"/><path class="cls-17" d="M352.78,317.31c.18.42-.15,1-.74,1.22a1,1,0,0,1-1.4-.29c-.19-.42.15-1,.74-1.23A1,1,0,0,1,352.78,317.31Z"/><path class="cls-17" d="M332.67,311.08a.78.78,0,1,1-1-.28A.72.72,0,0,1,332.67,311.08Z"/><path class="cls-17" d="M322.36,314.18c.14.31-.13.72-.6.93s-.95.11-1.09-.2.13-.73.6-.93S322.23,313.87,322.36,314.18Z"/><path class="cls-17" d="M318.11,321.51c.12.28.08.57-.09.64s-.41-.09-.53-.37-.09-.57.09-.64S318,321.23,318.11,321.51Z"/><path class="cls-17" d="M343.76,314a.52.52,0,0,1-.31.67.53.53,0,0,1-.71-.23.56.56,0,0,1,1-.44Z"/><path class="cls-17" d="M332.47,328.86a.65.65,0,1,1-.83-.29A.63.63,0,0,1,332.47,328.86Z"/><path class="cls-17" d="M325.48,342.78a1,1,0,0,1-1.26-.45,4.35,4.35,0,0,1-.32-2.69l0-.22c.2-1.8.39-3.43.71-5.08a1,1,0,0,1,1.14-.78,1,1,0,0,1,.78,1.15c-.31,1.58-.49,3.17-.69,4.93l0,.22a2.48,2.48,0,0,0,.11,1.58,1,1,0,0,1-.42,1.32Z"/><path class="cls-17" d="M330.82,341.46a1,1,0,0,1-.74,0,1,1,0,0,1-.56-1.27,12.78,12.78,0,0,0,.57-3.33c.06-.7.13-1.42.24-2.09,0-.18.08-.39.12-.61a8.12,8.12,0,0,0,.2-1.21,1,1,0,0,1,.93-1,1,1,0,0,1,1,.9,7.1,7.1,0,0,1-.23,1.73l-.11.55c-.1.59-.16,1.24-.22,1.93a13.79,13.79,0,0,1-.7,3.87A1,1,0,0,1,330.82,341.46Z"/><path class="cls-17" d="M335.76,338.08a1,1,0,0,1-1.32-1.19,7.3,7.3,0,0,0,.24-3.24,1,1,0,0,1,.67-1.21,1,1,0,0,1,1.21.68,9.3,9.3,0,0,1-.25,4.36A1,1,0,0,1,335.76,338.08Z"/><path class="cls-17" d="M341,343.63a.77.77,0,0,1-.34.08,1,1,0,0,1-1-.92l-.06-.91c-.13-2-.29-4.34.58-6.3a1,1,0,0,1,1.29-.5,1,1,0,0,1,.5,1.29c-.67,1.52-.54,3.57-.42,5.38q0,.48.06.93A1,1,0,0,1,341,343.63Z"/><path class="cls-17" d="M346.14,343.28a1.07,1.07,0,0,1-.27.07,1,1,0,0,1-1.09-.85c0-.35-.06-.7-.09-1.05s0-.43-.05-.64a1,1,0,1,1,1.94-.18c0,.22,0,.45.06.67s.05.64.09,1A1,1,0,0,1,346.14,343.28Z"/><path class="cls-17" d="M354.93,337.58a1,1,0,0,1-1.34-1.11c.38-1.68.62-3.47.86-5.3l0-.27a3.66,3.66,0,0,0,.06-1.07,1,1,0,0,1,.33-1.33,1,1,0,0,1,1.35.34,3.54,3.54,0,0,1,.2,2.34l0,.23c-.25,1.89-.5,3.73-.9,5.49A1,1,0,0,1,354.93,337.58Z"/><path class="cls-17" d="M314.34,336a.94.94,0,0,1-.6.05,1,1,0,0,1-.74-1.16c.24-1.05.4-2.16.55-3.24q.13-1,.3-1.92c0-.25.09-.51.15-.79a6.21,6.21,0,0,0,.23-2,1,1,0,1,1,1.92-.33,7.28,7.28,0,0,1-.24,2.75c-.05.25-.1.49-.14.71-.1.62-.19,1.25-.28,1.87-.16,1.11-.33,2.26-.58,3.38A1,1,0,0,1,314.34,336Z"/><path class="cls-17" d="M319.11,334.7a1,1,0,0,1-.82,0,1,1,0,0,1-.45-1.31,4.66,4.66,0,0,0,.22-1.06,1,1,0,0,1,1.94.24,5.52,5.52,0,0,1-.4,1.67A1,1,0,0,1,319.11,334.7Z"/><path class="cls-35" d="M323.16,362.87s-3.33-5.88,1.6-8.23c0,0-4.73-11,6.64-18.27,0,0-1.51-12.82,14.24-22.23,0,0-1.44-3.36,3.31-7.37s8-2.76,8-2.76-1.63-13.49,14.08-18.38,22.59,2.15,22.59,2.15,0-6.39,6.51-6.62a11.17,11.17,0,0,1,9.48,4.08s4.21-10,17.2-9.16,18.09,9,18.09,9,.74-2.62,9.05-3.85,13.15,7.62,13.15,7.62,4.12-2.53,10.22,2.64c0,0,41.33,35.2-28.24,63.59C383.56,381.81,324.17,367.91,323.16,362.87Z"/><path class="cls-36" d="M374.85,318.89s-4.66-3.07-8.08-1.5-8.2,5-9.49,4.31.11-2.09-.53-1.71-5.21,1.17-5.71.23,1.81-1.93,1.18-1.92-2.68.41-2.74-.45,1.35-.81.89-1-1.11-.71-.58-1.06,1-.8,4.74-.41,3.06.8,4.7.15,2.9-.12,2.23-.58a8.62,8.62,0,0,0-4.74-.46c-1.83.31-5.52.09-7.21-.91s-1.41-2.56-.53-2.69.82,0,1.22-.53.8-.59,1.49-.58,4.23.28,3.6-.61-5.64-.23-5.8-.65.27-.64-.32-.92-1.36-.59-1-1.43.43-1.34,1.3-1.24,2.53-.06,1.8-.45-3.68-1.51-3.21-2.14.88-.85.4-1.27-2.57-2.42-1.37-3,1.9.18,2.37-.26.29-.41,1,.21,2.36,2.73,2.24,2.21-2.42-3.63-1.27-3.56,2.68.49,3,1.34,1.7,5.17,2.23,4.33-1.06-7-.4-7,2,5.3,2.9,7.43,2.11,6.71,3.33,6.16,1.54-1.14.43-3.62-2.53-6.25-1.95-6.4,1.34.17.94-.59-1.41-2.69-.61-3,.72-2.3,1.26-2a13,13,0,0,1,3.14,2.29c.73.92.29,2.07.74,3s1.31-.38,1.65.7-.82,2.66-.36,3.4,1.51.79,1.28,1.79-3.34,4.11-2.31,6.73a10.13,10.13,0,0,0,9,5.73C380.51,317.18,378.12,320.18,374.85,318.89Z"/><path class="cls-37" d="M374.85,318.89s-4.66-3.07-8.08-1.5-8.2,5-9.49,4.31.11-2.09-.53-1.71-5.21,1.17-5.71.23,1.81-1.93,1.18-1.92-2.68.41-2.74-.45,1.35-.81.89-1-1.11-.71-.58-1.06,1-.8,4.74-.41,3.06.8,4.7.15,2.9-.12,2.23-.58a8.62,8.62,0,0,0-4.74-.46c-1.83.31-5.52.09-7.21-.91s-1.41-2.56-.53-2.69.82,0,1.22-.53.8-.59,1.49-.58,4.23.28,3.6-.61-5.64-.23-5.8-.65.27-.64-.32-.92-1.36-.59-1-1.43.43-1.34,1.3-1.24,2.53-.06,1.8-.45-3.68-1.51-3.21-2.14.88-.85.4-1.27-2.57-2.42-1.37-3,1.9.18,2.37-.26.29-.41,1,.21,2.36,2.73,2.24,2.21-2.42-3.63-1.27-3.56,2.68.49,3,1.34,1.7,5.17,2.23,4.33-1.06-7-.4-7,2,5.3,2.9,7.43,2.11,6.71,3.33,6.16,1.54-1.14.43-3.62-2.53-6.25-1.95-6.4,1.34.17.94-.59-1.41-2.69-.61-3,.72-2.3,1.26-2a13,13,0,0,1,3.14,2.29c.73.92.29,2.07.74,3s1.31-.38,1.65.7-.82,2.66-.36,3.4,1.51.79,1.28,1.79-3.34,4.11-2.31,6.73a10.13,10.13,0,0,0,9,5.73C380.51,317.18,378.12,320.18,374.85,318.89Z"/><path class="cls-36" d="M416.67,299.7s-3.86-3.87-2.7-7.32,4.09-8.47,3.18-9.56-2.17.44-1.86-.22.49-5.06-.55-5.37-1.77,2-1.85,1.4.05-2.56-.85-2.48-.66,1.38-.94,1-.9-.93-1.2-.37-.68,1.09.24,4.5,1.27,2.73.81,4.37.28,2.72-.29,2.17a7.28,7.28,0,0,1-1.14-4.35c.06-1.76-.68-5.18-2-6.6s-2.88-.91-2.89-.07.15.77-.38,1.23a1.33,1.33,0,0,0-.41,1.48c.11.64.89,3.92-.13,3.47s-1-5.24-1.49-5.32-.64.35-1-.15-.81-1.18-1.62-.69-1.35.62-1.12,1.41.29,2.38-.23,1.76-2.08-3.2-2.68-2.66-.77,1-1.27.58-2.9-2-3.35-.8.46,1.75.07,2.25-.39.34.35.87S394.58,282,394,282s-4.13-1.68-3.9-.61.9,2.42,1.83,2.62,5.65.76,4.83,1.39-7.48.13-7.33.74,5.82,1,8.17,1.52,7.31.9,6.91,2.14-1,1.61-3.73,1-6.89-1.37-7-.81.36,1.23-.49,1-3-.89-3.19-.1-2.31,1-1.89,1.5a13.13,13.13,0,0,0,2.84,2.56c1.06.53,2.2-.05,3.2.22s-.21,1.28,1,1.43,2.67-1.19,3.5-.88,1.05,1.28,2.05.91,3.84-3.78,6.72-3.23a9.55,9.55,0,0,1,7.26,7.54C415.67,305.26,418.48,302.55,416.67,299.7Z"/><path class="cls-36" d="M416.67,299.7s-3.86-3.87-2.7-7.32,4.09-8.47,3.18-9.56-2.17.44-1.86-.22.49-5.06-.55-5.37-1.77,2-1.85,1.4.05-2.56-.85-2.48-.66,1.38-.94,1-.9-.93-1.2-.37-.68,1.09.24,4.5,1.27,2.73.81,4.37.28,2.72-.29,2.17a7.28,7.28,0,0,1-1.14-4.35c.06-1.76-.68-5.18-2-6.6s-2.88-.91-2.89-.07.15.77-.38,1.23a1.33,1.33,0,0,0-.41,1.48c.11.64.89,3.92-.13,3.47s-1-5.24-1.49-5.32-.64.35-1-.15-.81-1.18-1.62-.69-1.35.62-1.12,1.41.29,2.38-.23,1.76-2.08-3.2-2.68-2.66-.77,1-1.27.58-2.9-2-3.35-.8.46,1.75.07,2.25-.39.34.35.87S394.58,282,394,282s-4.13-1.68-3.9-.61.9,2.42,1.83,2.62,5.65.76,4.83,1.39-7.48.13-7.33.74,5.82,1,8.17,1.52,7.31.9,6.91,2.14-1,1.61-3.73,1-6.89-1.37-7-.81.36,1.23-.49,1-3-.89-3.19-.1-2.31,1-1.89,1.5a13.13,13.13,0,0,0,2.84,2.56c1.06.53,2.2-.05,3.2.22s-.21,1.28,1,1.43,2.67-1.19,3.5-.88,1.05,1.28,2.05.91,3.84-3.78,6.72-3.23a9.55,9.55,0,0,1,7.26,7.54C415.67,305.26,418.48,302.55,416.67,299.7Z"/><path class="cls-2" d="M433.61,280.08c5.85,3.46,5.28,15.27-1.29,26.36s-16.63,17.28-22.49,13.82-5.27-15.27,1.29-26.36S427.76,276.62,433.61,280.08Z"/><path class="cls-17" d="M438.57,290.63a37.32,37.32,0,0,1-5.42,16.3c-6.95,11.73-17.4,17.94-23.8,14.15-3.2-1.89-4.78-5.92-4.48-11.37a40.62,40.62,0,0,1,17.26-29c4.57-2.8,8.82-3.32,12-1.45S438.88,285.18,438.57,290.63Zm-31.78,19.19c-.27,4.69,1,8.11,3.53,9.62,5.3,3.13,15-3,21.18-13.49a35.26,35.26,0,0,0,5.16-15.43c.26-4.69-1-8.11-3.54-9.62s-6.05-1-10,1.44a38.7,38.7,0,0,0-16.34,27.48Z"/><path class="cls-34" d="M433.5,280l.11.06c5.85,3.46,5.28,15.27-1.29,26.36s-16.63,17.28-22.49,13.82l9,5.34c5.85,3.46,15.92-2.73,22.49-13.82,6.38-10.78,7.11-21.25,1.78-25.07h0L433.5,280Z"/><path class="cls-17" d="M447.54,296.39c-.27,4.77-2.2,10.41-5.44,15.88-6.94,11.72-17.39,17.94-23.8,14.15l-9-5.34a1,1,0,0,1,1-1.64h0c5.3,3.13,15-3,21.18-13.49a35.39,35.39,0,0,0,5.16-15.43c.23-4.08-.72-7.28-2.68-9l-1-.72a.94.94,0,0,1-.36-1.09.91.91,0,0,1,.13-.26l.06-.08.16-.18a1,1,0,0,1,1.65.38c.19.13.38.28.56.43l8.45,5.92.05,0C446.43,288,447.8,291.67,447.54,296.39Zm-32.72,25.73,4.46,2.65c5.29,3.14,15-3,21.17-13.48,3.08-5.21,4.92-10.54,5.17-15,.23-4.06-.87-7.18-3.12-8.79l0,0-4.61-3.23a17.3,17.3,0,0,1,.71,6.39,37.32,37.32,0,0,1-5.42,16.3C428,315.71,420.78,321.4,414.82,322.12Z"/><path class="cls-17" d="M414.39,307.93s3-2.48,3.62-4.44a2.31,2.31,0,0,0-1-2.83s1.49.15,1.69-1.17a6.53,6.53,0,0,0-.84-3.18s2.69,3.47,4.44,2.42a17.44,17.44,0,0,0,3.35-2.82s-2.88,5.2-2.22,6.2a7.31,7.31,0,0,0,2,1.79s-3.09-1.25-3,0,1.88,5,1.88,5-3-3.31-3.72-3.41S416.76,306.28,414.39,307.93Z"/><path class="cls-17" d="M421.85,310a.67.67,0,0,1,.64.7.68.68,0,0,1-1.36-.08A.67.67,0,0,1,421.85,310Z"/><path class="cls-17" d="M429.1,298.1a1.25,1.25,0,0,1,1,1.44,1.11,1.11,0,1,1-2.16-.12A1.25,1.25,0,0,1,429.1,298.1Z"/><path class="cls-17" d="M430.77,287.83a.79.79,0,0,1,.61.91c0,.48-.35.85-.71.83a.9.9,0,0,1,.1-1.74Z"/><path class="cls-17" d="M426.49,284.09c.45,0,.78.56.75,1.19s-.43,1.12-.88,1.1-.78-.56-.75-1.19S426,284.07,426.49,284.09Z"/><path class="cls-17" d="M412.21,299a.76.76,0,0,1-.08,1.5.76.76,0,0,1,.08-1.5Z"/><path class="cls-17" d="M410.39,309.33c.33,0,.58.44.55.93s-.32.89-.65.87-.58-.44-.55-.93S410.06,309.31,410.39,309.33Z"/><path class="cls-17" d="M414.94,316.27c.3,0,.53.18.52.36s-.26.32-.56.3-.53-.17-.52-.36S414.64,316.26,414.94,316.27Z"/><path class="cls-17" d="M419.59,290.51a.54.54,0,0,1-.06,1.08.51.51,0,0,1-.45-.57A.53.53,0,0,1,419.59,290.51Z"/><path class="cls-17" d="M427.68,306.93a.62.62,0,0,1,.55.67.59.59,0,1,1-1.17-.07A.62.62,0,0,1,427.68,306.93Z"/><path class="cls-17" d="M436.79,319.16a1,1,0,0,1-1,.91,4.25,4.25,0,0,1-2.5-.91l-.17-.12c-1.49-1-2.83-1.84-4.14-2.85a1,1,0,0,1-.18-1.34,1,1,0,0,1,1.35-.18c1.25,1,2.55,1.83,4,2.77l.18.12a2.44,2.44,0,0,0,1.44.59,1,1,0,0,1,1,1Z"/><path class="cls-17" d="M438,313.91a1,1,0,0,1-1.67.59,12.25,12.25,0,0,0-2.66-2c-.58-.36-1.19-.73-1.73-1.13l-.47-.37a9.93,9.93,0,0,0-1-.71,1,1,0,0,1,.74-1.76,6.61,6.61,0,0,1,1.41,1l.44.34c.46.34,1,.68,1.58,1a14.24,14.24,0,0,1,3.09,2.31A1,1,0,0,1,438,313.91Z"/><path class="cls-17" d="M437.19,308.1a.92.92,0,0,1-.27.61,1,1,0,0,1-1.35,0,7,7,0,0,0-2.73-1.63,1,1,0,1,1,.36-1.88,8.89,8.89,0,0,1,3.7,2.13A.92.92,0,0,1,437.19,308.1Z"/><path class="cls-17" d="M444.33,306a.94.94,0,0,1-.08.33,1,1,0,0,1-1.26.5l-.82-.35c-1.84-.78-3.92-1.66-5.25-3.27a1,1,0,1,1,1.47-1.22c1,1.25,2.89,2,4.53,2.72l.84.36A1,1,0,0,1,444.33,306Z"/><path class="cls-17" d="M446.3,301.3a1.31,1.31,0,0,1-.06.27,1,1,0,0,1-1.23.58l-.95-.38-.58-.23a1,1,0,1,1,.69-1.79l.62.25.87.35A1,1,0,0,1,446.3,301.3Z"/><path class="cls-17" d="M445.17,291.12a.95.95,0,0,1-1.56.68c-1.31-1.07-2.82-2.11-4.26-3.08l-.22-.15a3.74,3.74,0,0,0-.91-.52,1,1,0,0,1-1-.88,1,1,0,0,1,.89-1,3.47,3.47,0,0,1,2.14.85l.19.13c1.48,1,3,2.07,4.4,3.19A1,1,0,0,1,445.17,291.12Z"/><path class="cls-17" d="M426,325.94a1,1,0,0,1-.22.55,1,1,0,0,1-1.35.14c-.81-.67-1.71-1.3-2.58-1.9-.52-.37-1-.73-1.56-1.11l-.61-.48a6.19,6.19,0,0,0-1.67-1.08,1,1,0,1,1,.56-1.83,7.27,7.27,0,0,1,2.3,1.42l.56.43c.49.37,1,.72,1.51,1.07.9.63,1.83,1.28,2.71,2A1,1,0,0,1,426,325.94Z"/><path class="cls-17" d="M426.92,321.19a1,1,0,0,1-1.71.53,4.9,4.9,0,0,0-.83-.66,1,1,0,0,1-.27-1.33,1,1,0,0,1,1.32-.27,5.32,5.32,0,0,1,1.29,1.09A1,1,0,0,1,426.92,321.19Z"/><path class="cls-2" d="M377.51,247.47c-5.87-3.44-5.34-15.24,1.18-26.37s16.57-17.34,22.44-13.9,5.33,15.25-1.19,26.37S383.38,250.91,377.51,247.47Z"/><path class="cls-17" d="M372.51,236.94a37.34,37.34,0,0,1,5.36-16.32c6.89-11.75,17.32-18,23.74-14.25,3.2,1.88,4.8,5.91,4.52,11.36A40.53,40.53,0,0,1,389,246.79c-4.55,2.83-8.8,3.36-12,1.51S372.22,242.39,372.51,236.94Zm31.71-19.31c.24-4.7-1-8.11-3.58-9.61-5.31-3.11-15,3.1-21.12,13.57a35.32,35.32,0,0,0-5.1,15.45c-.25,4.7,1,8.11,3.57,9.61s6.06.95,10-1.48a38.71,38.71,0,0,0,16.24-27.54Z"/><path class="cls-34" d="M377.62,247.53l-.11-.06c-5.87-3.44-5.34-15.24,1.18-26.37s16.57-17.34,22.44-13.9l-9-5.3c-5.87-3.44-15.91,2.78-22.43,13.9-6.34,10.81-7,21.28-1.69,25.08h0l9.59,6.65Z"/><path class="cls-17" d="M363.52,231.22c.25-4.78,2.16-10.42,5.37-15.9,6.9-11.75,17.33-18,23.75-14.25l9,5.31a.94.94,0,0,1,.34,1.3,1,1,0,0,1-1.31.34h0c-5.31-3.11-15,3.1-21.12,13.57a35.32,35.32,0,0,0-5.1,15.45c-.22,4.09.75,7.28,2.71,9l1,.71a.94.94,0,0,1,.36,1.09.91.91,0,0,1-.13.26l-.06.07-.16.19a1,1,0,0,1-1.35.1,1.06,1.06,0,0,1-.29-.47c-.2-.14-.39-.28-.57-.43l-8.47-5.89-.05,0C364.66,239.63,363.27,235.94,363.52,231.22Zm32.61-25.86-4.47-2.64c-5.3-3.11-15,3.1-21.12,13.57-3.06,5.22-4.87,10.55-5.11,15-.21,4.06.91,7.18,3.16,8.78l0,0,4.62,3.21a17.49,17.49,0,0,1-.73-6.39,37.34,37.34,0,0,1,5.36-16.32C383,211.82,390.18,206.1,396.13,205.36Z"/><path class="cls-17" d="M393.59,225.07a6.85,6.85,0,0,0-1.74,2.16,1.11,1.11,0,0,0,.51,1.37s-.73-.07-.82.57a3.16,3.16,0,0,0,.41,1.54s-1.31-1.68-2.15-1.17a8.2,8.2,0,0,0-1.62,1.38s1.39-2.53,1.06-3a3.4,3.4,0,0,0-1-.87s1.5.61,1.47,0a10.88,10.88,0,0,0-.92-2.41s1.46,1.59,1.81,1.64A6.41,6.41,0,0,0,393.59,225.07Z"/><path class="cls-17" d="M389.15,217.53a.66.66,0,1,1,.72-.63A.67.67,0,0,1,389.15,217.53Z"/><path class="cls-17" d="M382,229.44a1.43,1.43,0,1,1,1.15-1.33A1.26,1.26,0,0,1,382,229.44Z"/><path class="cls-17" d="M380.32,239.71a.78.78,0,0,1-.61-.9c0-.49.34-.86.7-.84a.79.79,0,0,1,.62.9C381,239.36,380.69,239.73,380.32,239.71Z"/><path class="cls-17" d="M384.61,243.43c-.44,0-.78-.55-.75-1.18s.43-1.13.87-1.1.79.55.75,1.18S385.06,243.45,384.61,243.43Z"/><path class="cls-17" d="M398.83,228.52a.7.7,0,0,1-.59-.79.64.64,0,1,1,.59.79Z"/><path class="cls-17" d="M400.61,218.13c-.33,0-.58-.43-.55-.93s.32-.89.65-.87.58.43.55.93S400.94,218.15,400.61,218.13Z"/><path class="cls-17" d="M396,211.21c-.3,0-.53-.18-.53-.36s.26-.32.56-.31.53.18.52.36S396.34,211.22,396,211.21Z"/><path class="cls-17" d="M391.49,237a.51.51,0,0,1-.45-.57.5.5,0,0,1,.5-.51.51.51,0,0,1,.46.56A.53.53,0,0,1,391.49,237Z"/><path class="cls-17" d="M383.33,220.6a.62.62,0,0,1-.55-.67.63.63,0,0,1,.62-.6.64.64,0,0,1-.07,1.27Z"/><path class="cls-17" d="M374.18,208.4a.94.94,0,0,1,.94-.9,4.09,4.09,0,0,1,2.5.89l.18.12c1.49,1,2.83,1.83,4.15,2.83a1,1,0,0,1,.18,1.35,1,1,0,0,1-1.34.18c-1.26-1-2.57-1.82-4-2.75l-.18-.12a2.38,2.38,0,0,0-1.44-.59,1,1,0,0,1-1-.95Z"/><path class="cls-17" d="M373,213.66a1,1,0,0,1,.32-.66,1,1,0,0,1,1.35.07,12.53,12.53,0,0,0,2.67,2c.59.36,1.19.73,1.73,1.12l.48.37a9.93,9.93,0,0,0,1,.71,1,1,0,0,1,.51,1.25,1,1,0,0,1-1.24.51,7.15,7.15,0,0,1-1.42-1l-.43-.33c-.47-.35-1-.68-1.6-1a14.24,14.24,0,0,1-3.09-2.31A.94.94,0,0,1,373,213.66Z"/><path class="cls-17" d="M373.82,219.46a1,1,0,0,1,.26-.61,1,1,0,0,1,1.36,0,7.16,7.16,0,0,0,2.73,1.62,1,1,0,0,1,.77,1.12,1,1,0,0,1-1.12.76,8.91,8.91,0,0,1-3.71-2.12A.92.92,0,0,1,373.82,219.46Z"/><path class="cls-17" d="M366.69,221.6a1,1,0,0,1,.07-.33,1,1,0,0,1,1.26-.5l.82.35c1.84.77,3.93,1.64,5.27,3.25a1,1,0,1,1-1.47,1.22c-1-1.24-2.9-2-4.54-2.7l-.84-.36A1,1,0,0,1,366.69,221.6Z"/><path class="cls-17" d="M364.74,226.3a.88.88,0,0,1,.06-.27,1,1,0,0,1,1.22-.58c.32.11.64.24,1,.37l.59.23a1,1,0,1,1-.69,1.79l-.62-.25-.87-.34A1,1,0,0,1,364.74,226.3Z"/><path class="cls-17" d="M365.9,236.48a.89.89,0,0,1,.22-.55,1,1,0,0,1,1.34-.14c1.31,1.07,2.83,2.1,4.28,3.06l.22.15a3.56,3.56,0,0,0,.91.52.94.94,0,0,1,1,.87,1,1,0,0,1-.88,1,3.47,3.47,0,0,1-2.14-.84l-.19-.13c-1.49-1-3.05-2.06-4.43-3.18A1,1,0,0,1,365.9,236.48Z"/><path class="cls-17" d="M385,201.58a.91.91,0,0,1,.22-.55,1,1,0,0,1,1.34-.14c.82.66,1.72,1.29,2.6,1.89.52.36,1,.72,1.55,1.1.2.14.41.3.62.47a6,6,0,0,0,1.67,1.08,1,1,0,1,1-.55,1.83,7.22,7.22,0,0,1-2.31-1.41l-.55-.43c-.5-.36-1-.71-1.52-1.06-.91-.63-1.84-1.27-2.71-2A1,1,0,0,1,385,201.58Z"/><path class="cls-17" d="M384,206.34a1,1,0,0,1,1.71-.54,3.83,3.83,0,0,0,.83.65,1,1,0,0,1-1.05,1.61,5.32,5.32,0,0,1-1.29-1.09A.93.93,0,0,1,384,206.34Z"/><path class="cls-38" d="M392.7,328.93s-.3-6.12,5.82-6.53,9.47-.41,11.8-3A10.67,10.67,0,0,1,422,316.83c4.77,1.85,12.37,1,14.33-2.33s6.33-4.4,6.71-4.48,6.14,4.92,5.11,7.48a44,44,0,0,1-11.18,14.91c-5.92,4.8-16.24,7.5-19.63,8.5S392.7,328.93,392.7,328.93Z"/><path class="cls-39" d="M376,348.91c.57,1.31-.46,3-2.3,3.81s-3.78.38-4.35-.93.46-3,2.3-3.82S375.41,347.59,376,348.91Z"/><path class="cls-39" d="M414.34,338.6c1,2.24-.69,5.11-3.71,6.42s-6.25.55-7.22-1.69.69-5.11,3.71-6.42S413.37,336.36,414.34,338.6Z"/><path class="cls-39" d="M446.4,316.53c.38.87-.61,2.14-2.21,2.83s-3.19.54-3.57-.33.61-2.14,2.21-2.83S446,315.66,446.4,316.53Z"/><path class="cls-39" d="M352.27,360.37c.57,1.33-.69,3.15-2.81,4.07s-4.32.6-4.9-.73.69-3.15,2.81-4.07S351.69,359,352.27,360.37Z"/><path class="cls-39" d="M429.6,341.05a2.1,2.1,0,1,1-2.8-1.18A2.15,2.15,0,0,1,429.6,341.05Z"/><path class="cls-37" d="M347.33,338.72s-.57-4.56,4.77-7.71l9.82,2.13s2.44,5.29-1.73,8.26C360.19,341.4,351.4,341.26,347.33,338.72Z"/><path class="cls-36" d="M451.67,297.42c0,.45,5.07-.17,5.07-.17s6.63-7.52,8.11-10.22-4.34-7-10.33-6.44A39.54,39.54,0,0,0,451.67,297.42Z"/><path class="cls-36" d="M384.45,335.35l5.86-.18s-.18,9.32-2.85,14.94a10.91,10.91,0,0,1-9-3.21S384.4,337.5,384.45,335.35Z"/><path class="cls-36" d="M375.08,308.7l6.08-4.5s-2.14-4.22-4.53-5.06-5.25,2.27-5.25,2.27A9.26,9.26,0,0,0,375.08,308.7Z"/><path class="cls-36" d="M434.56,314.09l3.55,2.43s8.05-1.22,9.59-2.35,1.87-8.62-5.3-9.17Z"/><path class="cls-36" d="M357.2,363.67l7.95-3.44s4.93,4.73,5.23,5.07-.43,3.31-4.4,4.24S357.2,363.67,357.2,363.67Z"/><path class="cls-37" d="M395.08,352.19s3.35-2.13,6-.63,4.56,5.84,4.75,6.11-4.41,2.43-4.41,2.43S395.75,356.54,395.08,352.19Z"/><path class="cls-36" d="M443.75,331.91s1-5.12,3.54-5.42a11,11,0,0,1,5.1.87l-1.72,5S445.78,334.41,443.75,331.91Z"/><path class="cls-36" d="M451.53,313.46s-.25.32,2.08,1.9a29.44,29.44,0,0,1,6.05,5.47c2.1,2.42,3,2.56,3.91,2.11s1.6.71,2.64,1.76,3,3.11,3.13,2.15.09-1.84.78-1.84,1.19.16,1.62-.21a2.37,2.37,0,0,1,1.12-.6c.48-.12,2.07.34.63-1.35s-10.13-5.6-9.73-6.09,2.89-.48,4.5.41,4.67,3.75,5.38,2.57.76-1.17,1.08-1.22.64-.89-1-1.51-2.59-1.91-1.93-2.07,4.58.25,6.19.14,3,.09,2.33-.72-2.62-1.3-2.14-1.65,5.48-.64,4.84-2-2.68-1.67-4.72-1-2.65.53-2.1-.31,2.64-2.44.68-2.05-3.49,1.86-3.83,1.08,1.64-1.94.45-2.21-2.54.64-3,0-.46-2.39-1.39-1.49-1.5,1.54-1.84,1.19.18-1.7-1-1-7.84,6.63-8.67,5.92.47-2.81,2.92-5,4.07-3.22,3.51-3.94-1.27-.25-1.55-.92,1.78-5.67.79-5.36-2.11,1.67-2.53,1.27a1.83,1.83,0,0,0-2.11.22c-.63.54-.81,2.19-1.6,2s-1.24-1.12-2.05-.52-1.63,3-1.84,7.09S451.14,312.49,451.53,313.46Z"/><path class="cls-37" d="M451.52,313.39s-.26.32,2.07,1.92a28.91,28.91,0,0,1,6,5.49c2.1,2.43,3,2.57,3.9,2.13s1.61.7,2.64,1.76,3,3.13,3.12,2.16.1-1.83.79-1.83,1.19.16,1.62-.2a2.23,2.23,0,0,1,1.12-.59c.48-.13,2.07.33.64-1.35s-10.11-5.64-9.7-6.14,2.88-.46,4.49.43,4.66,3.77,5.38,2.6.76-1.18,1.08-1.22.65-.89-.95-1.52-2.58-1.92-1.92-2.07,4.59.27,6.2.17,3,.1,2.33-.72-2.61-1.3-2.13-1.66,5.48-.61,4.85-2-2.68-1.67-4.72-1-2.65.51-2.09-.32,2.64-2.43.68-2.05-3.5,1.85-3.84,1.07,1.65-1.94.47-2.21-2.55.63-3,0-.45-2.38-1.38-1.49-1.52,1.54-1.86,1.18.19-1.69-1-1-7.86,6.59-8.69,5.88.49-2.8,2.94-5,4.09-3.21,3.53-3.93-1.27-.26-1.55-.93,1.81-5.66.82-5.35-2.12,1.65-2.54,1.26a1.83,1.83,0,0,0-2.11.21c-.63.53-.82,2.18-1.61,2s-1.23-1.13-2.05-.54-1.64,3-1.87,7.09S451.13,312.42,451.52,313.39Z"/><path class="cls-36" d="M358.77,351.6s2.24-.84-.13-2.94-4.47-3.38-6.64-6.2-2.92-4.53-3.61-4.56,1.23,3.68-.09,3.22-2.9-3.58-4-2.65-.51,2.27-1.69,2-2.28-.92-2.75-.69-.68.93-1.59,1.21-1,.13-1.1,1.06.52,1.81,4.06,2.38,6.21,1.29,5.35,1.76-2.53,0-6.85-.85-3.05-1.6-4.68-.81-1.08,1.42-.61,1.89,2.74,3.34,1.33,3.24-4.47-.84-4.48,0,.89,1.7.38,2a11.48,11.48,0,0,1-2.11,1.07c-1.52.67-1.23,1.31-.64,1.82s1.32.35,1.26,1-.59,1.37.26,1.09,1.35-.69,1.73-.32.41,1.8,2.95,0,5.34-2.25,5.09-.55-.65,4.76,2.07,3.83a26.72,26.72,0,0,0,8.78-4.83C353.54,352.47,357.8,352.38,358.77,351.6Z"/><path class="cls-36" d="M358.77,351.6s2.24-.84-.13-2.94-4.47-3.38-6.64-6.2-2.92-4.53-3.61-4.56,1.23,3.68-.09,3.22-2.9-3.58-4-2.65-.51,2.27-1.69,2-2.28-.92-2.75-.69-.68.93-1.59,1.21-1,.13-1.1,1.06.52,1.81,4.06,2.38,6.21,1.29,5.35,1.76-2.53,0-6.85-.85-3.05-1.6-4.68-.81-1.08,1.42-.61,1.89,2.74,3.34,1.33,3.24-4.47-.84-4.48,0,.89,1.7.38,2a11.48,11.48,0,0,1-2.11,1.07c-1.52.67-1.23,1.31-.64,1.82s1.32.35,1.26,1-.59,1.37.26,1.09,1.35-.69,1.73-.32.41,1.8,2.95,0,5.34-2.25,5.09-.55-.65,4.76,2.07,3.83a26.72,26.72,0,0,0,8.78-4.83C353.54,352.47,357.8,352.38,358.77,351.6Z"/><path class="cls-40" d="M419.64,328.61l3.93-4.59a33.84,33.84,0,0,1,10.89,1s1.26,5.08-5.19,10.72C429.27,335.73,422.84,333.84,419.64,328.61Z"/><path class="cls-41" d="M392.7,328.93s-.3-6.12,5.82-6.53,9.47-.41,11.8-3A10.67,10.67,0,0,1,422,316.83c4.77,1.85,12.37,1,14.33-2.33s6.33-4.4,6.71-4.48"/><path class="cls-39" d="M399.83,324.66c.73,1.69-.64,3.91-3.06,5s-5,.52-5.7-1.17.64-3.9,3.05-4.95S399.1,323,399.83,324.66Z"/><path class="cls-42" d="M390.69,214.09c-.17-.52-2.74-4.45,3.08-4.62s6.68.68,7.36-1.37.51-3.08,3.59-4.11,5.65-2.05,6-4.62.52-4.28,2.57-5.3-.34-3.77,1-6.85,7-3.25,7.87,2.06-1.88,5.81-3.25,7.35-2.06,3.25-3.08,6.51-1.54,5.81-6,6.84-4.62,3.08-7.19,4.11-2.74.51-4.79,0S391.39,216.14,390.69,214.09Z"/><path class="cls-43" d="M446.38,222.7c-.14,0-5.62-1.41-3.09-6.57s4.57-1.17,6.28-2.92,1.3-4.55,3.29-2.79,6.44,2.31,5.94-1.87-2.67-8.7.09-10.11,4.3,3.1,5.55,0-.6-.87,1.57-4.75-.58-6.16-.94-9.2,4.39-6.39,7.26-1.72.42,5.9.59,8.34,2.49,5,0,8.7-4.94,1.83-5.62,5.15.64,7.16-2.59,7.24-3.72.59-5.49,4.13S452.38,224.07,446.38,222.7Z"/><path class="cls-44" d="M464.07,265.64c.56-.52,4.79-3.42,5.31,1s-2.23,6.16-4.45,5.47S459.45,269.92,464.07,265.64Z"/><path class="cls-44" d="M295.64,256c.56-.52,4.79-3.42,5.3,1s-2.22,6.16-4.44,5.47S291,260.24,295.64,256Z"/><path class="cls-45" d="M369.75,171s-4.28-1.72-1.71-3.77,2.74-1.88,3.42-4.45.86-2.05,3.25-4.1,2.57-2.74,5.14-6.68,2.22-3.93,5.64-5.82,1.71-1.71,4.62-3.59,3.6-1.54,8.22-3.08,4.89-4.79,7.57-3.93,5.87,6.84,0,8.55-7.06,0-10.65,3.08-2.42,6-7,7.7-5.81.34-7.18,4.11-1,4.62-3.93,6.5S373,172.21,369.75,171Z"/><path class="cls-45" d="M359.88,223.15c-.83-.29-8-2.1-5.61-6s2.87-2.08,4.07,0,3.46,1.45,4.64,2.36S362.79,224.16,359.88,223.15Z"/><path class="cls-42" d="M354.83,248.91s1.2-3.76-5.13-2-5.82,1.84-9.24-.45-5.3-5.71-9.07-6-2.91-.35-5.13-3.25-.17-8.05-4.11-7.88-6.84,5.65-3.08,8.56,4.28,1.37,5.48,6.5,4.62,6.85,8.72,7.19,6.68-1,8.39,1.88,7.7,5.13,12,4.28,3.08-.86,6.67,2.05,7.23,2.4,7-1.71-3.45-5.82-6.7-6.5S354.84,250.19,354.83,248.91Z"/><path class="cls-45" d="M417.91,226.11s-.47-3,1.67-2.81,2.6-1.18,4.47-1.65,3.93.73,2.66,2.8-1.73.32-3.93,3.16S417.71,229.3,417.91,226.11Z"/><path class="cls-21" d="M343.62,174.32c4.41,3.19,3.09,12.56-3,20.93s-14.53,12.56-18.94,9.37-3.09-12.56,3-20.93S339.21,171.13,343.62,174.32Z"/><path class="cls-17" d="M346.8,183.1a29.82,29.82,0,0,1-5.52,12.6c-6.39,8.84-15.18,13-20,9.54-2.41-1.74-3.38-5.08-2.73-9.4A32.47,32.47,0,0,1,334.42,174c3.85-1.9,7.27-2,9.65-.29S347.45,178.78,346.8,183.1Zm-26.75,13c-.56,3.72.2,6.54,2.11,7.93,4,2.89,12.19-1.33,17.88-9.2a28.28,28.28,0,0,0,5.25-11.93c.55-3.72-.2-6.54-2.12-7.93s-4.76-1.22-8.07.42a31,31,0,0,0-15.05,20.71Z"/><path class="cls-20" d="M343.54,174.27l.08,0c4.41,3.19,3.09,12.56-3,20.93s-14.53,12.56-18.94,9.37l6.75,4.91c4.41,3.19,12.89-1,18.94-9.37,5.88-8.13,7.23-16.42,3.26-19.86h0l-7.13-6Z"/><path class="cls-17" d="M353.53,188.35a29.46,29.46,0,0,1-5.5,12.26c-6.39,8.84-15.18,13-20,9.54l-6.76-4.91a.77.77,0,0,1-.16-1.07.75.75,0,0,1,1.06-.17h0c4,2.88,12.18-1.33,17.87-9.2a28.28,28.28,0,0,0,5.25-11.93c.48-3.24,0-5.85-1.48-7.37l-.77-.64a.77.77,0,0,1-.2-.9.63.63,0,0,1,.13-.2l0,0,.14-.13a.75.75,0,0,1,1.08,0,.7.7,0,0,1,.2.39l.42.39,6.3,5.34,0,0C353.26,181.55,354.09,184.61,353.53,188.35Zm-28,18.11,3.36,2.45c4,2.89,12.17-1.32,17.87-9.2A27.77,27.77,0,0,0,352,188.12c.48-3.22-.17-5.79-1.84-7.24l0,0L346.7,178a13.73,13.73,0,0,1,.1,5.15,29.82,29.82,0,0,1-5.52,12.6C336.49,202.32,330.36,206.33,325.56,206.46Z"/><path class="cls-22" d="M337.39,182.94c1.91,1.37,1.33,5.42-1.27,9s-6.27,5.42-8.18,4-1.33-5.42,1.28-9S335.49,181.56,337.39,182.94Z"/><path class="cls-22" d="M335.88,194.76a1.26,1.26,0,1,1-1.21,1A1.12,1.12,0,0,1,335.88,194.76Z"/><path class="cls-22" d="M324.11,189.94a.62.62,0,0,1,.4.78.57.57,0,1,1-1.09-.25A.63.63,0,0,1,324.11,189.94Z"/><path class="cls-17" d="M331.28,207.76c.26.06.44.23.4.39s-.27.24-.53.18-.44-.23-.4-.39S331,207.7,331.28,207.76Z"/><path class="cls-17" d="M343.32,196.38a.48.48,0,0,1-.21.93.46.46,0,0,1-.32-.56A.45.45,0,0,1,343.32,196.38Z"/><path class="cls-17" d="M348.91,190.05a.56.56,0,0,1-.24,1.1.54.54,0,0,1-.38-.66A.53.53,0,0,1,348.91,190.05Z"/><path class="cls-17" d="M345.45,187.27a13.36,13.36,0,0,1,5.42-.16c1.41.32-4.55-3.53-4.55-3.53Z"/><path class="cls-17" d="M336.94,200.21a10.69,10.69,0,0,1,4.05,1.57c.94.68-2.24-4-2.24-4Z"/><path class="cls-21" d="M338.28,189.13a8.11,8.11,0,0,1-3.25-.35c-.81-.31,2.42,2.48,2.42,2.48Z"/><path class="cls-21" d="M330.58,196.87a5.91,5.91,0,0,1-1-2.14c-.12-.62-.6,2.45-.6,2.45Z"/><path class="cls-21" d="M385.82,311.07c-1,1.92-4.81,1.89-8.45-.06s-5.76-5.09-4.73-7,4.82-1.9,8.46.06S386.85,309.15,385.82,311.07Z"/><path class="cls-17" d="M382.51,312.8a12.11,12.11,0,0,1-5.29-1.52c-3.84-2.07-6-5.33-4.85-7.43.57-1.05,1.84-1.61,3.58-1.58a13.07,13.07,0,0,1,9.52,5.13c1,1.43,1.18,2.78.62,3.81S384.26,312.82,382.51,312.8Zm-6.57-9.92c-1.5,0-2.58.43-3,1.26-.93,1.74,1.18,4.76,4.6,6.6a11.32,11.32,0,0,0,5,1.44c1.51,0,2.59-.42,3-1.26s.23-1.95-.59-3.18a12.48,12.48,0,0,0-9-4.86Z"/><path class="cls-20" d="M385.84,311s0,0,0,0c-1,1.92-4.81,1.89-8.45-.06s-5.76-5.09-4.73-7l-1.58,2.93c-1,1.92,1.08,5.06,4.72,7s6.9,2,8.05.23h0l2-3.15Z"/><path class="cls-17" d="M380.79,315.74a11.7,11.7,0,0,1-5.15-1.52c-3.85-2.07-6-5.33-4.85-7.43l1.58-2.94a.31.31,0,0,1,.42-.12.3.3,0,0,1,.12.41h0c-.93,1.74,1.18,4.76,4.6,6.6a11.32,11.32,0,0,0,5,1.44,3.53,3.53,0,0,0,2.85-1l.21-.33a.31.31,0,0,1,.35-.13l.08,0,0,0,.06,0a.3.3,0,0,1,0,.43.36.36,0,0,1-.14.11l-.13.18-1.78,2.79h0A3.69,3.69,0,0,1,380.79,315.74Zm-8.67-10.12-.79,1.46c-.94,1.74,1.17,4.76,4.6,6.6a11.14,11.14,0,0,0,4.87,1.45,3.09,3.09,0,0,0,2.77-1.12h0l1-1.52a5.5,5.5,0,0,1-2,.32,12.11,12.11,0,0,1-5.29-1.52C374.34,309.73,372.43,307.52,372.12,305.62Z"/><path class="cls-22" d="M382.08,309.06c-.45.83-2.08.81-3.65,0s-2.48-2.19-2-3,2.08-.82,3.65,0S382.52,308.23,382.08,309.06Z"/><path class="cls-22" d="M377.31,309.09a.45.45,0,0,1-.52.34c-.27,0-.48-.22-.46-.43a.45.45,0,0,1,.52-.34C377.12,308.69,377.33,308.88,377.31,309.09Z"/><path class="cls-22" d="M378.59,304.17a.24.24,0,0,1-.28.19.25.25,0,0,1-.25-.24.25.25,0,0,1,.28-.2A.25.25,0,0,1,378.59,304.17Z"/><path class="cls-17" d="M371.91,308c0,.1-.07.18-.14.18s-.1-.1-.1-.2.07-.19.14-.19S371.92,307.85,371.91,308Z"/><path class="cls-17" d="M377.06,312.12a.18.18,0,0,1-.2.16.19.19,0,0,1-.18-.19.19.19,0,0,1,.21-.16A.19.19,0,0,1,377.06,312.12Z"/><path class="cls-17" d="M379.87,314a.22.22,0,0,1-.24.19.21.21,0,0,1-.21-.22.22.22,0,0,1,.24-.19A.21.21,0,0,1,379.87,314Z"/><path class="cls-17" d="M380.79,312.48a5.32,5.32,0,0,1,.35,2.14c-.05.58,1.16-2,1.16-2Z"/><path class="cls-17" d="M375.21,309.8a4.34,4.34,0,0,1-.41,1.69c-.22.41,1.47-1.11,1.47-1.11Z"/><path class="cls-21" d="M379.67,309.74a3.22,3.22,0,0,1,0-1.31c.08-.34-.85,1.09-.85,1.09Z"/><path class="cls-21" d="M376.19,307.1a2.34,2.34,0,0,1,.79-.52c.24-.08-1-.11-1-.11Z"/><path class="cls-36" d="M394,318.7s-9.24-7.12-13.49-4.42-3.73,1.69-6.7,1-5.4-.68-5.21,1.29-1.08,2.66-2.84,3.34-2.62,4.31-.64,5.49,2.55,2.23,1.47,4,.24,4.05,3.29,4,2.13,1.09,4.09,2.4,4,1.46,5.57-2.22.73-3.42,5.43-3.62,4.28-1.79,4.59-4.7,2.82-3.25,4.5-4.09S396.16,320.23,394,318.7Z"/><path class="cls-36" d="M394,318.7s-9.24-7.12-13.49-4.42-3.73,1.69-6.7,1-5.4-.68-5.21,1.29-1.08,2.66-2.84,3.34-2.62,4.31-.64,5.49,2.55,2.23,1.47,4,.24,4.05,3.29,4,2.13,1.09,4.09,2.4,4,1.46,5.57-2.22.73-3.42,5.43-3.62,4.28-1.79,4.59-4.7,2.82-3.25,4.5-4.09S396.16,320.23,394,318.7Z"/><path class="cls-39" d="M376,324.58a2.71,2.71,0,1,1-3.34-1A2.48,2.48,0,0,1,376,324.58Z"/><path class="cls-18" d="M445.5,248.82l26.13-14.72c.14.76.28,1.52.43,2.29l-25.62,13.3.77-.12Z"/><path class="cls-19" d="M445.3,248.52a107.45,107.45,0,0,1,25.42-10.59,3.4,3.4,0,0,1-1.9,3.16,11.91,11.91,0,0,1-3.73,1.1c-6.32,1.25-12.17,4.12-17.95,7Z"/><path class="cls-18" d="M446.13,247.51a69.92,69.92,0,0,1,19.68-4.81,8.25,8.25,0,0,1-.92,3.51A35.49,35.49,0,0,0,446.38,248Z"/><path class="cls-19" d="M445.92,248.56c6.12-7.28,13.69-12.62,21.09-18.39a2.48,2.48,0,0,1,.51-.33c2.15-1.06,2.25,1.88,1.33,3-1.23,1.54-3.38,2.7-5,3.79A210.28,210.28,0,0,0,446.19,250l-.95-1.65"/><path class="cls-19" d="M446.36,245.87c.7-1.93,3.06-4.05,4.28-5.74,1.46-2,2.88-4.1,4.26-6.19,2.48-3.75,5.46-7.78,6.7-12.16a29.86,29.86,0,0,1,3,1c-1.16,1.68-1.22,3.44-2.55,5.1l-15.61,19.49Z"/><path class="cls-18" d="M446,248.1l19.54-22.85c1,1.88-.42,4.08-1.79,5.7a146.71,146.71,0,0,1-17.31,17.32"/><path class="cls-18" d="M444.64,247.31a89.7,89.7,0,0,0,12-20,2.87,2.87,0,0,1,.62-1,1,1,0,0,1,1.08-.18c.6.36.35,1.27,0,1.89-1.12,2.15-1.94,4.53-3.11,6.61-1.39,2.46-3.53,4.73-5.16,7.06q-2,2.84-3.92,5.65Z"/><path class="cls-21" d="M428.48,245.15c3-2.27,9,.57,13.35,6.36s5.34,12.33,2.28,14.61-9-.57-13.34-6.36S425.43,247.43,428.48,245.15Z"/><path class="cls-17" d="M435,244.87a20.9,20.9,0,0,1,7.26,6.32c4.56,6.12,5.51,12.87,2.17,15.36-1.66,1.24-4.09,1.19-6.84-.15a22.73,22.73,0,0,1-11.26-15.18c-.46-3,.19-5.27,1.83-6.5S432.26,243.53,435,244.87Zm3.06,20.57c2.37,1.15,4.4,1.24,5.73.25,2.77-2.06,1.67-8.41-2.39-13.86a19.91,19.91,0,0,0-6.87-6c-2.36-1.15-4.4-1.24-5.73-.25s-1.81,2.92-1.41,5.48a21.69,21.69,0,0,0,10.67,14.38Z"/><path class="cls-20" d="M428.43,245.2l.05,0c3-2.27,9,.57,13.35,6.36s5.34,12.33,2.28,14.61l4.69-3.48c3.06-2.27,4.77-11.37-.77-16-7.23-6-10.64-5.38-14.08-4.94h0l-5.52,3.5Z"/><path class="cls-17" d="M439.92,241.48c2.41,1.17,6.41,1.87,8.54,4.73,4.56,6.12,4,14.37.66,16.86l-4.69,3.48a.53.53,0,0,1-.75-.11.54.54,0,0,1,.11-.75h0c2.77-2.06,1.67-8.41-2.39-13.86a19.91,19.91,0,0,0-6.87-6c-2.06-1-3.91-1.2-5.22-.56l-.6.38a.54.54,0,0,1-.64-.05.64.64,0,0,1-.1-.13l0,0-.06-.12a.54.54,0,0,1,.25-.72.46.46,0,0,1,.3-.05l.35-.2,4.88-3.09,0,0C435.33,240.23,437.54,240.32,439.92,241.48Zm6.23,22.46,2.34-1.73c2.76-2.06,3.17-9.91-.89-15.36-2-2.72-5.89-3.31-8.15-4.41-2.05-1-3.91-1.09-5.22-.28h0l-2.66,1.69a9.62,9.62,0,0,1,3.45,1,20.9,20.9,0,0,1,7.26,6.32C445.67,255.77,447.07,260.71,446.15,263.94Z"/><path class="cls-22" d="M432.92,251.11c1.32-1,3.9.25,5.76,2.75s2.31,5.32,1,6.3-3.9-.25-5.76-2.74S431.61,252.1,432.92,251.11Z"/><path class="cls-22" d="M440.5,254.6a.88.88,0,0,1,1.48.86.77.77,0,0,1-1.07.15A.78.78,0,0,1,440.5,254.6Z"/><path class="cls-22" d="M434.82,261.45a.47.47,0,1,1,.21.57A.43.43,0,0,1,434.82,261.45Z"/><path class="cls-17" d="M448.21,260.39c.1-.16.25-.24.35-.18s.1.23,0,.39-.25.24-.35.19S448.12,260.56,448.21,260.39Z"/><path class="cls-17" d="M443.13,250a.34.34,0,0,1,.59.33.32.32,0,0,1-.44.09A.31.31,0,0,1,443.13,250Z"/><path class="cls-17" d="M440.09,244.91a.4.4,0,0,1,.68.4.4.4,0,0,1-.68-.4Z"/><path class="cls-17" d="M437.51,246.64a9.34,9.34,0,0,1,1-3.65c.51-.87-3.31,2.3-3.31,2.3Z"/><path class="cls-17" d="M444.36,255a7.47,7.47,0,0,1,1.9-2.37c.64-.48-3.16.66-3.16.66Z"/><path class="cls-21" d="M437.24,251.82a5.7,5.7,0,0,1-.91,2.1c-.37.47,2.16-1.1,2.16-1.1Z"/><path class="cls-21" d="M440.8,258.58a4.07,4.07,0,0,1-1.65.24c-.43-.05,1.51.91,1.51.91Z"/><path class="cls-46" d="M315.88,309.86s-7,1.29-11.71,5.38-11.28,6.49-11.36,1.43S299.86,302.63,315.88,309.86Z"/><path class="cls-46" d="M294.22,300.39s-8.84,3-9.16-1.49S291.49,298.28,294.22,300.39Z"/><path class="cls-46" d="M283,314.39s-6.22,9.2-11.94,5.56S270.21,310.58,283,314.39Z"/><path class="cls-46" d="M307.17,326.25a5.34,5.34,0,1,1,2.75,7A5.34,5.34,0,0,1,307.17,326.25Z"/><path class="cls-46" d="M265.17,338.15a4.39,4.39,0,1,1,2.27,5.78A4.39,4.39,0,0,1,265.17,338.15Z"/><path class="cls-46" d="M301.92,282.76a4.18,4.18,0,1,1,2.16,5.51A4.19,4.19,0,0,1,301.92,282.76Z"/></g></g></svg>