<svg xmlns="http://www.w3.org/2000/svg" viewBox="0 0 495 495">
  <style>
    .cls-1{fill: #F83E63;}
    .cls-2{fill: #F8F7F9;; opacity: .08;}
    .cls-3{fill: #F8F7F9;; opacity: .12;}
    .cls-4{fill: #F8F7F9;; opacity: .12;}
    .cls-5{fill: #F8F7F9;; opacity: .12;}
  </style>
  <g id="Layer_2" data-name="Layer 2">
    <g id="Lager_1" data-name="Lager 1">
      <path class="cls-1" d="M392.59,102.41A205.19,205.19,0,0,0,102.41,392.59,205.19,205.19,0,0,0,392.59,102.41Z"/>
      <path class="cls-2" d="M422.51,72.49a247.5,247.5,0,0,0-350,350,247.5,247.5,0,0,0,350-350Zm-175,380.19A205.19,205.19,0,0,1,102.41,102.41,205.19,205.19,0,0,1,392.59,392.59,203.86,203.86,0,0,1,247.5,452.68Z"/>
      <path class="cls-3" d="M124.11,397.18a194,194,0,0,0,247.37-.5L248,249.53Z"/>
      <path class="cls-4" d="M381.08,388.15a193.43,193.43,0,0,0,60.4-140.65c0-105-83.42-190.5-187.6-193.87V236.56Z"/>
      <path class="cls-5" d="M241.5,53.62c-104.36,3.17-188,88.76-188,193.88a193.43,193.43,0,0,0,61,141.18l127-151.37Z"/>
      <path class="cls-1" d="M253.88,236.56V53.63q-3.18-.1-6.38-.11c-2,0-4,0-6,.1V237.31l-127,151.37q4.68,4.41,9.63,8.5L248,249.53,371.48,396.68q4.95-4.1,9.6-8.53Z"/>
      <path class="cls-1" d="M344.09,235.15a23,23,0,0,0-7.54-1.83,2.46,2.46,0,0,0-1.79.56c-1.06.87-2.21,1.67-3.26,2.56a21.89,21.89,0,0,0-6.38,8.95,6.27,6.27,0,0,0,0,3.81c.51,2,.21,4.09.15,6.14l-.21.06c-.5-1-1.08-2-1.49-3-1.42-3.51-2.77-7.05-4.17-10.57-.4-1-.88-2-1.29-3a2.47,2.47,0,0,0-1.41-1.39c-.38-.17-.75-.36-1.14-.5a8.22,8.22,0,0,1-2.75-1.81,9.26,9.26,0,0,0-8.1-2.45c-1.68.28-2.95,1.16-3.17,2.93a21.13,21.13,0,0,1-.43,2.07c-.57,2.46.37,4.49,2.12,6.28,1.33,1.35,2.69,2.68,4.08,4a2.47,2.47,0,0,0,1.05.42c1,.29,1.87.52,2,1.78s1.21,2,2.37,2.55c2.72,1.36,5.42,2.76,8.14,4.13.51.26.74.53.28,1.05-.73-.25-1.48-.53-2.24-.75a22,22,0,0,0-12.32.07,17.38,17.38,0,0,0-6.26,2.8,10.48,10.48,0,0,0-3.55,4.92,2.58,2.58,0,0,1-.19.37l-.32,3.33c.19.83.33,1.67.56,2.49.75,2.58,3.06,3.36,5.35,1.79.66-.45,1.23-1,1.92-1.59.28.92.52,1.76.79,2.58a6.58,6.58,0,0,0,.52,1.22,2.16,2.16,0,0,0,3.1.71,50.2,50.2,0,0,0,7.62-6,14,14,0,0,1,4.26-3.09,8.35,8.35,0,0,1,7.16.08,31.62,31.62,0,0,1,3.16,1.88c-3.46,3.41-9.41,11-3.91,19,0,0,36.79,37.92,52.16,48.82,0,0,15,11,18.41,8.13,2.49-2.07-4.57-19.6-4.57-19.6-7.52-16.53-38.33-60.3-38.33-60.3-7.07-7.14-16.05-2.09-19.83.63-1.87-3.11-1.75-7.46.45-10.09a5.06,5.06,0,0,1,1.59-1.36,24.81,24.81,0,0,0,5.49-4.1c1.72-1.54,3.47-3,5.27-4.61-1.33-1.39-2.49-3-4.79-3.59.85-.61,1.61-1.07,2.26-1.63a2.48,2.48,0,0,0,.45-3.82A3.15,3.15,0,0,0,344.09,235.15Z"/>
      <path class="cls-1" d="M364.59,149.36c-.7-1.78,5-7.4,6.75-8.76.66-.52,1-2.61.74-3.61-1-3.59-4.14-4.14-7.11-4.88-1.68-.43-8.56,3.3-10,2.31-3.28-2.31-6.45-1.33-8.44,3.07-.92,2-1.41,4.29-2.41,6.29-.44.87-2,2.07-2.5,1.87-2.85-1.19-4.43.67-5.53,3.28-1.23,2.91-2.61,4.41-5.74,4.77s-3.85,3.83-4.16,6.82c-.54,5.36-7.11,12.63-13.11,13.59l-.19-.2c1.33-2.71,2.36-5.06,3.62-7.27,2.9-5.09,4.92-11,10.36-13.9a1.57,1.57,0,0,0,.64-.81c1.2-4,3.4-6.3,7.26-7.05.94-.18,3.37-3,2.56-4.55-2.53-4.81-1.56-5.91,4.05-6.09,6-.21,6-5.76,5.17-11.36-.59-3.86,4.29-3.09,6.17-7a9.16,9.16,0,0,0-.12-6.36c-1.19-3-7.12-10.17-6.45-14,.22-1.27-.66-2.62-1-3.92l-2.69-1.33c-5.59,1.2-10.31,4.84-14.9,8.62-2.84,2.35-3.56,5.8-3.18,9.26.41,3.71,0,6.91-3.44,9.57a6.56,6.56,0,0,0-2.15,7c.84,3.46,6.24,4.81-1.62,10.12-1.13.77-1.2,3.93-.55,4.75,3.6,4.55,2.46,9.9.3,15.15-2.05,5-4.69,9.79-7.48,15.36l-.95-1c-1.37-6.25-1.29-12,1.38-18,.77-1.74,1.75-3.39,2.47-5.15,1-2.39,1.42-4.74-.15-6.75-1.43-1.84-.95-4,.27-6.08a6.16,6.16,0,0,0,.21-6.68,8,8,0,0,1,0-5.4c1.11-3.36,1.53-6.22-.25-9.07-.68-1.09-.56-3-.54-4.54.12-6.36-3.52-8.94-8.85-5.66-1.83,1.13-2.77,2.62-1.47,4.48s-2.62,1.94-4.35,3.38c-4,3.32-1.37,9.65-.35,14.68.61,3-4.91,2.65-5.86,4.49-2.85,7.66,1.32,12.47,6.18,17.64a4.72,4.72,0,0,1,1.44,2c.77,3.62-.33,6.11,2.29,8,1.61,1.15,2.07,4.45,2.46,7,0,0,.4,5.14-3.17,6.58-12.33-2.31-23.78,1.51-28.18,10.42-4.84,9.81.38,22.62,11.79,31.11h0a7.94,7.94,0,0,1,2.56,3.78c-.6,4.92-1.56,10.4-5.83,13.05-1.81,1.12-4.16,1.68-5.33,3.41a5.26,5.26,0,0,0-.19,4.9,14.15,14.15,0,0,0,3.16,4.3,6.44,6.44,0,0,1-.45-5.17c.83-2.29,3-3.85,5.24-4.95s4.71-1.88,6.79-3.24a12.89,12.89,0,0,0,4.45-5h0c2.86-3.75,8.74-3,8.74-3h0c11.87,1.86,22.73-2,27-10.63,3.95-8,1.2-18-6.15-26h0c-.8-.88-1.66-1.74-2.57-2.56a8.28,8.28,0,0,1-1.59-4.73,53.2,53.2,0,0,1,7.84-4.47c1.21-.48,2.84.4,4.1,1,1.77.87,3.24,2.42,5.07,3.07,3.62,1.27,4.85.33,7.19-3.64a6.27,6.27,0,0,1,3.71-2.83c3.18-.39,5.07-2.18,5.67-5.44.49-2.66,1.63-3.7,3.87-3.77C362.6,159.37,369.6,162.18,364.59,149.36Z"/>
      <path class="cls-1" d="M186.06,85.26a1.91,1.91,0,0,0,.08-3.13,3.36,3.36,0,0,0-4,.24L82,166a1.91,1.91,0,0,0-.08,3.13,3.4,3.4,0,0,0,4-.25Z"/>
      <path class="cls-1" d="M223.52,104.7a3.25,3.25,0,0,0-3.91-.17l-88.19,57.59L127,163.24l45.43-34.68,45.77-25.14c1.32-.72,1.75-2.12.95-3.09a3.2,3.2,0,0,0-3.87-.45l-18.83,10.34,10.34-7.9a1.88,1.88,0,0,0,.18-3.06,3.27,3.27,0,0,0-3.86,0l-34,26-15,8.26,58.83-45.21a1.88,1.88,0,0,0,.16-3.07,3.27,3.27,0,0,0-3.86,0l-81.92,63-20.5,11.25L200.1,88.2a1.88,1.88,0,0,0,.18-3.06,3.26,3.26,0,0,0-3.86,0l-105,80.14a1.88,1.88,0,0,0-.18,3.06,3.25,3.25,0,0,0,3.7.09l0,.06a3.21,3.21,0,0,0,3.87.45l5.28-2.9a1.82,1.82,0,0,0,.23,2.69l.22.15L88.33,173c-1.53.38-2.46,1.63-2.08,2.76s1.93,1.76,3.46,1.37l17-4.29-8.62,6.58a1.88,1.88,0,0,0-.18,3.07,3.26,3.26,0,0,0,3.86,0l4.64-3.54a1.76,1.76,0,0,0,.38,2,3.28,3.28,0,0,0,3.92.18L133.89,166l15.6-3.94L98,197.12c-1.22.84-1.46,2.25-.52,3.14a3.3,3.3,0,0,0,3.93.11l61.05-41.6,64.23-16.21c1.52-.38,2.46-1.62,2.08-2.76s-1.94-1.75-3.46-1.37l-52.4,13.22,38.76-26.42a2,2,0,0,0,.52-3.13,3.27,3.27,0,0,0-3.93-.11l-48.33,32.93-14.86,3.75,77.83-50.83A2,2,0,0,0,223.52,104.7ZM109.66,167.61l20.92-16.08,14.47-7.95-29.54,22.55Zm1.2,7.93,7.35-5.61,2-.51Z"/>
      <path class="cls-1" d="M176.63,228.16c10.66-1.29,17.45-9.06,26.43-15,7.13-4.7,17.43-8.42,19.49-16.71a17.5,17.5,0,0,0-2.86-14.38c-.8-5.07-6.29-8.65-11.56-9.29-5.7-.69-11.41.94-17.15,1.23a81.32,81.32,0,0,1-12.17-.65c-5.35-.53-10.18,1.69-15.5,2.43-6.86,1-12.86,3.47-13.68,7.8-.94,4.89-4.46,6.71-4.83,11.67-.48,6.55,3.69,13.22,6.73,19C156.77,224.36,165.4,229.52,176.63,228.16Zm37.09-42.95a1.36,1.36,0,1,1,2-1.83l.77.85a1.36,1.36,0,0,1-2,1.83ZM187.46,188l.23-.21a2.38,2.38,0,0,1,3.2,3.53l-.23.21a2.38,2.38,0,0,1-3.2-3.53ZM160,190.7a2.32,2.32,0,1,1,3.44-3.12l.41.45a2.32,2.32,0,1,1-3.44,3.12Zm14.15,23.14a1.55,1.55,0,1,1,2.3-2.08l1.1.84c.57.63.12,1.87-.51,2.44s-1.65.17-2.22-.47Z"/>
      <path class="cls-1" d="M168.34,274.6c-1.61-1.68-4.44-4.27-7-4.54,0,0-1.18,3.41,1.37,8.91a6.49,6.49,0,0,0,.54,1.09c1.42,2.23,4,3.14,5.72,2s2-3.81.6-6A5.82,5.82,0,0,0,168.34,274.6Z"/>
      <path class="cls-1" d="M146.53,253.12a6.54,6.54,0,0,0-1.08.56c-2.21,1.45-3.08,4-1.94,5.75s3.84,2,6.05.51a6,6,0,0,0,1.43-1.31c1.65-1.63,4.2-4.51,4.43-7C155.42,251.61,152,250.48,146.53,253.12Z"/>
      <path class="cls-1" d="M210.61,248.83c1.45-1.82,3.63-5,3.56-7.49,0,0-3.54-.72-8.64,2.56a6,6,0,0,0-1,.68,5.67,5.67,0,0,0-.5.48,5.64,5.64,0,0,0-.71-.44c-2.36-1.18-5-.65-6,1.2a3.75,3.75,0,0,0,.78,4.09c-.68.41-1.43.9-2.18,1.46a3.38,3.38,0,0,0-2.66-1.43,3,3,0,0,0-1.51.41,17.59,17.59,0,0,0,1.38-5,6,6,0,0,0,.13-1.21c0-2.64-1.68-4.78-3.75-4.78s-3.74,2.14-3.74,4.78a5.88,5.88,0,0,0,.31,1.91c0,.21.1.44.15.68a17.37,17.37,0,0,0-4.45,2.1,6,6,0,0,0-1,.68c-.18.15-.34.32-.5.48a4.63,4.63,0,0,0-.71-.43,5.45,5.45,0,0,0-1.24-.45,6.72,6.72,0,0,0,.79-2.39s-3.43-1.13-8.89,1.51a5,5,0,0,0-.7.34c-.19-2.42-1.78-4.3-3.72-4.3s-3.75,2.14-3.75,4.78a5.88,5.88,0,0,0,.31,1.91,26.8,26.8,0,0,0,.91,3.39,15.74,15.74,0,0,0-2.41,6.64,6,6,0,0,0-.15,1.21,6.12,6.12,0,0,0,.09,1.14,3,3,0,0,0-.78-.82c-1.7-1.17-4.3-.34-5.79,1.84a6.17,6.17,0,0,0-.82,1.75c-.91,2.14-2.17,5.77-1.43,8.17,0,0,3.61-.25,7.65-4.77a5.83,5.83,0,0,0,1.77-4.46,3.55,3.55,0,0,0,3,2,3.43,3.43,0,0,0,.56,0,5.57,5.57,0,0,0,2.56,2.33,6,6,0,0,0,1.86.53c2.26.55,6.05,1.19,8.3.07a6,6,0,0,0-.37-1,11.61,11.61,0,0,0,1.71-.79,4.07,4.07,0,0,0,.13.5c.45,2.29,1.46,6,3.43,7.56a10.65,10.65,0,0,0,2.87-4.89,18.12,18.12,0,0,0,1,2.73,6.49,6.49,0,0,0,.54,1.09c1.42,2.23,4,3.14,5.72,2s2-3.81.6-6a5.82,5.82,0,0,0-1.28-1.45c-1.39-1.45-3.69-3.57-5.9-4.3a5.29,5.29,0,0,0-.54-1.41,14.16,14.16,0,0,0,2.65-1.87l.41,0a5.57,5.57,0,0,0,2.56,2.33,5.93,5.93,0,0,0,1.86.53c2.26.55,6.05,1.19,8.3.07,0,0-.75-3.11-5.09-6.18a20,20,0,0,0,.53-2.47,15.69,15.69,0,0,0,2.81,0,3.18,3.18,0,0,0-.31,2.05,3.76,3.76,0,0,0,3.26,2.75,5.81,5.81,0,0,0,0,.72,5.88,5.88,0,0,0,.32,1.91c.45,2.29,1.46,6,3.43,7.56,0,0,2.83-2.25,3.61-8.26a5.9,5.9,0,0,0,.13-1.21,5.66,5.66,0,0,0-.7-2.77,9.85,9.85,0,0,0,4-3.53s-2.4-2-7.61-1.95a4.23,4.23,0,0,0,.42-.89,8.23,8.23,0,0,0,3.95-.47,6.85,6.85,0,0,0-.8-1.87l.08-.06A6,6,0,0,0,210.61,248.83Zm-26.79,8.81c.22,0,.44,0,.65,0a5.29,5.29,0,0,0,.08.8A3,3,0,0,0,183.82,257.64Zm-9.74-3.25.33.43a25,25,0,0,0-2.17,1.46,4.32,4.32,0,0,0-.5-.54,6.26,6.26,0,0,0,1.54-.71A6.41,6.41,0,0,0,174.08,254.39Zm-1.49,9.34a20,20,0,0,0,.53-2.47,15.68,15.68,0,0,0,2.81,0,3.18,3.18,0,0,0-.31,2,3.13,3.13,0,0,0,.43,1,14.17,14.17,0,0,0-.45,2.11A16.89,16.89,0,0,0,172.59,263.73Z"/>
      <path class="cls-1" d="M226.82,233.89c-.41-2.29-1.35-6-3.29-7.61,0,0-2.87,2.19-3.76,8.18a6,6,0,0,0-.15,1.21c-.05,2.64,1.59,4.82,3.66,4.85s3.78-2.07,3.82-4.71A5.72,5.72,0,0,0,226.82,233.89Z"/>
      <path class="cls-1" d="M146.85,246.49a5.91,5.91,0,0,0,.78-.93,5.43,5.43,0,0,0,1-3.53,3.57,3.57,0,0,0,3,2c2.07,0,3.78-2.08,3.83-4.72a6,6,0,0,0-.28-1.92c-.42-2.29-1.36-6-3.3-7.61,0,0-2.87,2.19-3.76,8.19a6,6,0,0,0-.15,1.21,6.12,6.12,0,0,0,.09,1.14,3,3,0,0,0-.78-.82c-1.7-1.17-4.3-.34-5.79,1.84a6,6,0,0,0-.82,1.75c-.91,2.14-2.17,5.77-1.43,8.17C139.2,251.26,142.81,251,146.85,246.49Z"/>
      <path class="cls-1" d="M365.6,217.45Z"/>
      <path class="cls-1" d="M416.77,195a4.9,4.9,0,0,0-.7-3.71,4.81,4.81,0,0,0-5.69-1.94l-.16-.27a3.61,3.61,0,0,0-5-1.12,3.29,3.29,0,0,0-.76.67c-.35-.2-.69-.42-1-.65a4.7,4.7,0,0,0-.76-2.34,4.54,4.54,0,0,0-6.26-1.41l0,0a13,13,0,0,0-2.44-.18,5.06,5.06,0,0,1-1.63-.23,3.77,3.77,0,0,0-5.68-2.52l-.06.05a4.85,4.85,0,0,0-6.19-.81,4.72,4.72,0,0,0-2.06,3.09l-.66-.28a3.34,3.34,0,0,0-.51-1.42,3.14,3.14,0,0,0-4.32-1,3,3,0,0,0-1.26,1.72l-.2,0a3.59,3.59,0,0,0-4.6-.42,3.74,3.74,0,0,0-1.73,3.38l-.21.25a3.29,3.29,0,0,0-1,.45,3.13,3.13,0,0,0-1.41,3.19,12.17,12.17,0,0,0-1,2.78c-.06.28-.72.53-1.14.58a12.09,12.09,0,0,0-7.83,4.22,6.22,6.22,0,0,0-2.21.9c-2.38,1.56-3.29,4.37-2,6.29a3.42,3.42,0,0,0,1.45,1.24,11.69,11.69,0,0,0,.1,1.19,3.41,3.41,0,0,0-.25,3.92,3.26,3.26,0,0,0,2.3,1.41c.24.35.5.7.77,1a2,2,0,0,0-.07,2.16,2.32,2.32,0,0,0,3,.48c.27.18.54.34.81.49.77,1,1.8,1.58,2.37,1.21a.86.86,0,0,0,.14-.13,11.89,11.89,0,0,0,6.72.1h0c1.51,4,2.55,10,3.87,14,2.91,8.83,4.86,15.16,4.17,24.43a14.1,14.1,0,0,0,.27,2.56l.45.69a27.37,27.37,0,0,0,4,1.17c1.74.36,4.78,1.25,5.63-.74,1.64-3.85,3.41-10.8,5.42-14.44,4.06-7.35,9.76-11.68,14.91-17.31a3.81,3.81,0,0,0,3.59.18l0,0c.33.16.66.31,1,.44a2.21,2.21,0,0,0,.32.7,2.47,2.47,0,0,0,3.41.77,2.29,2.29,0,0,0,.63-.61,11.25,11.25,0,0,0,3.87-.62,4.65,4.65,0,0,0,4.67-.23,4.73,4.73,0,0,0,1.93-5.23c.15-.25.29-.5.43-.77s.18-.37.26-.55a5.07,5.07,0,0,0,2.85-7.8,5.63,5.63,0,0,0-.68-.85,2.92,2.92,0,0,0-3.35-3.11,12.7,12.7,0,0,0-.76-1,2.48,2.48,0,0,0-3.42-3.38l-.27.21a1.49,1.49,0,0,1-.4-1.46h0a2.43,2.43,0,0,0,.72-3,3.77,3.77,0,0,0,.46-4.76A3.81,3.81,0,0,0,416.77,195Zm-36.38,40.76c-.76-2.72-3.79-8.46-4.66-11.57,1.38.72,5.38,2.1,6.53,2.7C381.8,229.24,380.82,233.62,380.39,235.76Zm4,2.33c.38-1.93,2.17-7.16,2.64-9.57,1.1-.08,4.89.14,6.53,0C391.6,231,386,236,384.39,238.09Z"/>
      <path class="cls-1" d="M259.79,404.48a3.79,3.79,0,0,1-2.57-2.64,4.41,4.41,0,0,0,0-.52,4.88,4.88,0,0,0-9-2.69h0a4.87,4.87,0,0,0-.81,2.69c0,.14,0,.28,0,.42-.56,6.51,6.62,9.93,9,10.88a4.4,4.4,0,1,0,3.29-8.14Z"/>
      <path class="cls-1" d="M240.52,423.67a3.8,3.8,0,0,1,3.6-.81,3.19,3.19,0,0,0,.42.3,4.88,4.88,0,0,0,7-6.23h0a4.84,4.84,0,0,0-1.87-2.1,2.71,2.71,0,0,0-.37-.21c-5.26-3.88-11.92.46-14,2A4.3,4.3,0,0,0,234,418a4.4,4.4,0,0,0,6.57,5.67Z"/>
      <path class="cls-1" d="M262.05,423a3.8,3.8,0,0,1-3.62.71c-.13-.11-.27-.21-.41-.31a4.89,4.89,0,0,0-7.15,6h0a4.83,4.83,0,0,0,1.82,2.15l.36.22c5.15,4,11.93-.14,14-1.62a4.29,4.29,0,0,0,1.4-1.35,4.4,4.4,0,0,0-6.42-5.84Z"/>
      <path class="cls-1" d="M245.66,397.41a3.77,3.77,0,0,1,.64-3.63c.15-.09.3-.18.44-.28a4.88,4.88,0,0,0-3.05-8.85h0a4.93,4.93,0,0,0-2.66.92l-.33.26c-5.61,3.35-4.19,11.17-3.56,13.66a4.32,4.32,0,0,0,.75,1.79,4.4,4.4,0,0,0,7.77-3.87Z"/>
      <path class="cls-1" d="M265.67,383.5a3.77,3.77,0,0,1-2.57-2.64,4.41,4.41,0,0,0,0-.52,4.89,4.89,0,0,0-9-2.69h0a4.87,4.87,0,0,0-.81,2.69c0,.14,0,.29,0,.42-.55,6.52,6.63,9.93,9,10.88a4.4,4.4,0,1,0,3.29-8.14Z"/>
      <path class="cls-1" d="M271.31,413.52a3.78,3.78,0,0,1-2.57-2.65,4.36,4.36,0,0,0,0-.51,4.89,4.89,0,0,0-9-2.7h0a4.9,4.9,0,0,0-.81,2.7c0,.14,0,.28,0,.42-.55,6.51,6.63,9.92,9,10.87a4.27,4.27,0,0,0,1.89.43,4.39,4.39,0,0,0,1.4-8.56Z"/>
      <path class="cls-1" d="M237.05,412.43a3.8,3.8,0,0,1,2.87,2.33,3.05,3.05,0,0,0,0,.52,4.89,4.89,0,0,0,9.22,1.63h0a5,5,0,0,0,.49-2.77c0-.14,0-.28-.07-.42-.2-6.53-7.73-9.08-10.2-9.75a4.49,4.49,0,0,0-1.94-.21,4.4,4.4,0,0,0-.39,8.67Z"/>
      <path class="cls-1" d="M259.21,410.64a3.78,3.78,0,0,1-2.91,2.27,4.54,4.54,0,0,0-.51-.09,4.89,4.89,0,0,0-3.66,8.61h0a4.74,4.74,0,0,0,2.59,1.1l.42,0c6.41,1.26,10.59-5.5,11.79-7.76a4.26,4.26,0,0,0,.64-1.84,4.4,4.4,0,0,0-8.36-2.33Z"/>
      <path class="cls-1" d="M266.47,402.89a3.81,3.81,0,0,1,3.6.84,2.94,2.94,0,0,0,.25.46,4.89,4.89,0,0,0,9-2.56h0a4.88,4.88,0,0,0-.77-2.71l-.24-.35c-3-5.78-10.93-4.79-13.44-4.31A4.4,4.4,0,0,0,261.7,401,4.4,4.4,0,0,0,266.47,402.89Z"/>
      <path class="cls-1" d="M293,333.7h0c-7.25-4.58-9.62-8.66-9.63-8.67l-10.39-18.19s4.73-3.29,3.92-6.79c0,0-6.82-11.76-12,1.68,0,0-13.74-2.67-7.86,9,0,0,.58,3.67,6.85,1.47,0,0,7.4,12.37,11.36,19.77h0a14.75,14.75,0,0,1,1.38,8.47c-1.81,11.81-4.21,46.05,24.46,63.73,0,0,13.1,6.44,23.41.21C324.48,404.43,368.91,379.85,293,333.7Z"/>
      <path class="cls-1" d="M260.59,326.18c-14.57,5.79-24.3,1.14-27.53-.88l0-.06-.64-.33c-.38-.27-.58-.43-.58-.43l0,.06c-3.24-2-11.72-8.63-13-24.25,0,0-11.85,10.4.43,31.94a88.76,88.76,0,0,0-19.95,9.4c-5-.63-6.6-6.31-6.6-6.31-11.6,6.09-22.14,21.84-22.14,21.84-3.32,7.31,1.12,11.49,3.32,13-4.38,11-5.16,24.77,1.21,41.79a6.21,6.21,0,0,1,4.79-2.26A6.22,6.22,0,0,1,180,415c13.2-1.36,23.14-5.36,30.63-10.85h0c17.34.09,18.31-8.09,18.31-8.09-2.07-3.48-5.82-2.57-9.21-.63a57.41,57.41,0,0,0,10.46-21.65h0c11.54-9.25,6.3-11.35,6.3-11.35-2.61-.21-3.88,1.36-4.65,3a89.75,89.75,0,0,0,0-25.47C256.53,341.42,260.59,326.18,260.59,326.18Zm-80.68,73.33a3.44,3.44,0,1,1,3.44-3.44A3.44,3.44,0,0,1,179.91,399.51Z"/>
      <path class="cls-1" d="M139,294.52c-1-2.66-3.38-5.12-4.44-7.4-1-2.08-.55-4-1.55-5.94-2.31-4.44-4.64-8.7-6.7-13.74q-1-3.74-2.24-7.44c-1.32-4.14-3.71-8-5.28-12.06-1.79-4.63-3.25-8.64-5.34-13.13-2.38.8-4.29.87-6.63,1.76-2.8,1.06-3.49,2.28-6.23,3.47-1.37.59-4.81,1.11-6.17,1.73q-7.38,3.4-14.47,7.38a16.88,16.88,0,0,0-9.42,3,14.25,14.25,0,0,0,6.8,12.58c.76.46,1.67,1,1.8,1.85s-.65,1.72-.87,2.62a4.49,4.49,0,0,0,.49,2.74L84.92,287c1.87.06,4.06,2.39,3.25,4.07-1.92,4,1.48,10.7,5.74,18.87a35.41,35.41,0,0,1,1.81,5.56c1.15,3.52,1.82,6.42,4.35,9.12,1.48,1.57,1.15,2.71,1.53,3.59a59.92,59.92,0,0,0,3.76,7.93c15-6.18,27.18-11.84,42.48-17.29,0-4.19-5.31-11.53-6.23-15.4A83.3,83.3,0,0,0,139,294.52Zm-34.42-48a2,2,0,1,1-1.35,2.54A2,2,0,0,1,104.57,246.48ZM83.08,261.2a2.49,2.49,0,1,1,3.11,1.65A2.48,2.48,0,0,1,83.08,261.2Zm8.06,23a2,2,0,1,1,2.51,1.33A2,2,0,0,1,91.14,284.19Zm23,38.51a2.45,2.45,0,1,1-3.06-1.62A2.44,2.44,0,0,1,114.15,322.7Zm-7.49-20.93a2.45,2.45,0,1,1-3.06-1.62A2.46,2.46,0,0,1,106.66,301.77Zm-4.54-39.5A2.49,2.49,0,1,1,99,260.62,2.49,2.49,0,0,1,102.12,262.27Zm9,20.64a2,2,0,1,1,2.51,1.33A2,2,0,0,1,111.13,282.91Zm16.26,21.42a2.37,2.37,0,1,1-3-1.57A2.37,2.37,0,0,1,127.39,304.33Zm-15.45-38.57a2.49,2.49,0,1,1,3.11,1.65A2.49,2.49,0,0,1,111.94,265.76Zm25.15,47.34a2.45,2.45,0,1,1-3.06-1.62A2.46,2.46,0,0,1,137.09,313.1Zm-9.61-20.32a2,2,0,1,1,1.35-2.54A2,2,0,0,1,127.48,292.78Z"/>
    </g>
  </g>
</svg>